<?xml version="1.0" encoding="UTF-8" standalone="no"?>
<!-- Created with Inkscape (http://www.inkscape.org/) -->

<svg
   xmlns:dc="http://purl.org/dc/elements/1.1/"
   xmlns:cc="http://creativecommons.org/ns#"
   xmlns:rdf="http://www.w3.org/1999/02/22-rdf-syntax-ns#"
   xmlns:svg="http://www.w3.org/2000/svg"
   xmlns="http://www.w3.org/2000/svg"
   version="1.1"
   width="248.0325"
   height="425.19626"
   id="svg130509"
   xml:space="preserve"><metadata
     id="metadata130515"><rdf:RDF><cc:Work
         rdf:about=""><dc:format>image/svg+xml</dc:format><dc:type
           rdf:resource="http://purl.org/dc/dcmitype/StillImage" /><dc:title></dc:title></cc:Work></rdf:RDF></metadata><defs
     id="defs130513"><clipPath
       id="clipPath130523"><path
         d="m 0,340.157 198.426,0 L 198.426,0 0,0 0,340.157 z"
         id="path130525" /></clipPath><clipPath
       id="clipPath130555"><path
         d="m 0,0 198.426,0 0,340.157 L 0,340.157 0,0 z"
         id="path130557" /></clipPath><clipPath
       id="clipPath130563"><path
         d="m 91.6074,404.191 189.3216,0 0,-189.321 -189.3216,0 0,189.321 z"
         id="path130565" /></clipPath><clipPath
       id="clipPath130579"><path
         d="m 144.192,278.917 78.724,0 0,-78.723 -78.724,0 0,78.723 z"
         id="path130581" /></clipPath><clipPath
       id="clipPath130595"><path
         d="m 159.792,291.557 34.557,0 0,-34.556 -34.557,0 0,34.556 z"
         id="path130597" /></clipPath><clipPath
       id="clipPath130611"><path
         d="m 165.007,386.926 83.378,0 0,-83.376 -83.378,0 0,83.376 z"
         id="path130613" /></clipPath><clipPath
       id="clipPath130627"><path
         d="m 141.798,230.749 7.848,0 0,-7.848 -7.848,0 0,7.848 z"
         id="path130629" /></clipPath><clipPath
       id="clipPath130643"><path
         d="m 140.363,222.143 2.827,0 0,-2.828 -2.827,0 0,2.828 z"
         id="path130645" /></clipPath><clipPath
       id="clipPath130659"><path
         d="m 140.717,235.057 2.12,0 0,-2.121 -2.12,0 0,2.121 z"
         id="path130661" /></clipPath><clipPath
       id="clipPath130675"><path
         d="m 135.707,230.024 3.533,0 0,-3.531 -3.533,0 0,3.531 z"
         id="path130677" /></clipPath><clipPath
       id="clipPath130691"><path
         d="m 143.043,221.424 14.682,0 0,-14.681 -14.682,0 0,14.681 z"
         id="path130693" /></clipPath><clipPath
       id="clipPath130707"><path
         d="m 185.806,317.081 55.742,0 0,-55.741 -55.742,0 0,55.741 z"
         id="path130709" /></clipPath><clipPath
       id="clipPath130723"><path
         d="m 190.649,193.268 6.783,0 0,-6.568 -6.783,0 0,6.568 z"
         id="path130725" /></clipPath><clipPath
       id="clipPath130739"><path
         d="m 189.433,293.156 149.171,0 0,-129.187 -149.171,0 0,129.187 z"
         id="path130741" /></clipPath><clipPath
       id="clipPath130755"><path
         d="m 61.2305,409.686 383.1775,0 0,-285.922 -383.1775,0 0,285.922 z"
         id="path130757" /></clipPath><clipPath
       id="clipPath130759"><path
         d="m 61.2305,409.686 383.7515,0 0,-285.922 -383.7515,0 0,285.922 z"
         id="path130761" /></clipPath><mask
       id="mask130763"><g
         id="g130765"><g
           clip-path="url(#clipPath130755)"
           id="g130767"><path
             d="m 61.23,409.686 383.752,0 0,-285.922 -383.752,0 0,285.922 z"
             id="path130769"
             style="fill:#000000;fill-opacity:1;fill-rule:nonzero;stroke:none" /><g
             id="g130771"><g
               id="g130773" /><g
               id="g130775"><g
                 clip-path="url(#clipPath130759)"
                 id="g130777"><path
                   d="m 354.715,35.184 -392.171,0 0,392.171 392.171,0 0,-392.171 z"
                   id="path130779"
                   style="fill:#ffffff;fill-opacity:1;fill-rule:nonzero;stroke:none" /></g></g></g></g></g></mask><clipPath
       id="clipPath130785"><path
         d="m 61.2305,409.686 383.1775,0 0,-285.922 -383.1775,0 0,285.922 z"
         id="path130787" /></clipPath><clipPath
       id="clipPath131521"><path
         d="m -130.905,233.286 189.321,0 0,-189.3231 -189.321,0 0,189.3231 z"
         id="path131523" /></clipPath><clipPath
       id="clipPath131537"><path
         d="m -78.3203,108.01 78.72362,0 0,-78.7229 -78.72362,0 0,78.7229 z"
         id="path131539" /></clipPath><clipPath
       id="clipPath131553"><path
         d="m 8.71484,140.422 64.00786,0 0,-64.0079 -64.00786,0 0,64.0079 z"
         id="path131555" /></clipPath><clipPath
       id="clipPath131569"><path
         d="m 68.8848,175.216 64.0092,0 0,-64.007 -64.0092,0 0,64.007 z"
         id="path131571" /></clipPath><clipPath
       id="clipPath131585"><path
         d="m 86.6006,23.7227 46.2934,0 0,-64.0079 -46.2934,0 0,64.0079 z"
         id="path131587" /></clipPath><clipPath
       id="clipPath131601"><path
         d="m 35.6895,242.315 64.0078,0 0,-64.008 -64.0078,0 0,64.008 z"
         id="path131603" /></clipPath><clipPath
       id="clipPath131617"><path
         d="m -57.5059,216.02 83.378,0 0,-83.377 -83.378,0 0,83.377 z"
         id="path131619" /></clipPath><clipPath
       id="clipPath131633"><path
         d="m -18.1191,36.5 49.7734,0 0,-49.7715 -49.7734,0 0,49.7715 z"
         id="path131635" /></clipPath><clipPath
       id="clipPath131649"><path
         d="m 4.38574,234.665 19.15336,0 0,-19.153 -19.15336,0 0,19.153 z"
         id="path131651" /></clipPath><clipPath
       id="clipPath131665"><path
         d="m 89.8047,0.751953 26.3233,0 0,-26.322253 -26.3233,0 0,26.322253 z"
         id="path131667" /></clipPath><clipPath
       id="clipPath131681"><path
         d="m 71.1738,254.116 10.0918,0 0,-10.093 -10.0918,0 0,10.093 z"
         id="path131683" /></clipPath><clipPath
       id="clipPath131697"><path
         d="m 36.125,233.825 10.0928,0 0,-10.092 -10.0928,0 0,10.092 z"
         id="path131699" /></clipPath><clipPath
       id="clipPath131713"><path
         d="m 61.2842,246.045 6.4043,0 0,-6.402 -6.4043,0 0,6.402 z"
         id="path131715" /></clipPath><clipPath
       id="clipPath131729"><path
         d="m 24.8525,241.895 17.4717,0 0,-17.471 -17.4717,0 0,17.471 z"
         id="path131731" /></clipPath><clipPath
       id="clipPath131745"><path
         d="m 17.4482,234.516 10.0918,0 0,-10.092 -10.0918,0 0,10.092 z"
         id="path131747" /></clipPath><clipPath
       id="clipPath131761"><path
         d="m 54.8027,249.274 3.6358,0 0,-3.635 -3.6358,0 0,3.635 z"
         id="path131763" /></clipPath><clipPath
       id="clipPath131777"><path
         d="m 17.0137,243.739 3.6357,0 0,-3.635 -3.6357,0 0,3.635 z"
         id="path131779" /></clipPath><clipPath
       id="clipPath131793"><path
         d="m -36.707,146.174 55.7422,0 0,-55.7404 -55.7422,0 0,55.7404 z"
         id="path131795" /></clipPath><clipPath
       id="clipPath131809"><path
         d="m -11.9639,188.848 55.7422,0 0,-55.741 -55.7422,0 0,55.741 z"
         id="path131811" /></clipPath><clipPath
       id="clipPath131825"><path
         d="m 46.6094,209.959 79.5356,0 0,-79.537 -79.5356,0 0,79.537 z"
         id="path131827" /></clipPath><clipPath
       id="clipPath131841"><path
         d="m 61.6563,146.252 70.9387,0 0,-79.7676 -70.9387,0 0,79.7676 z"
         id="path131843" /></clipPath><clipPath
       id="clipPath131855"><path
         d="m 20.5342,9.30469 34.8076,0 0,-33.82619 -34.8076,0 0,33.82619 z"
         id="path131857" /></clipPath><clipPath
       id="clipPath131871"><path
         d="m -33.0801,122.25 149.1711,0 0,-129.1875 -149.1711,0 0,129.1875 z"
         id="path131873" /></clipPath><clipPath
       id="clipPath131887"><path
         d="m -161.282,238.78 383.178,0 0,-285.9226 -383.178,0 0,285.9226 z"
         id="path131889" /></clipPath><clipPath
       id="clipPath131891"><path
         d="m -161.282,238.78 383.752,0 0,-285.9226 -383.752,0 0,285.9226 z"
         id="path131893" /></clipPath><mask
       id="mask131895"><g
         id="g131897"><g
           clip-path="url(#clipPath131887)"
           id="g131899"><path
             d="m -161.282,238.78 383.752,0 0,-285.922 -383.752,0 0,285.922 z"
             id="path131901"
             style="fill:#000000;fill-opacity:1;fill-rule:nonzero;stroke:none" /><g
             id="g131903"><g
               id="g131905" /><g
               id="g131907"><g
                 clip-path="url(#clipPath131891)"
                 id="g131909"><path
                   d="m 132.202,-135.723 -392.171,0 0,392.171 392.171,0 0,-392.171 z"
                   id="path131911"
                   style="fill:#ffffff;fill-opacity:1;fill-rule:nonzero;stroke:none" /></g></g></g></g></g></mask><clipPath
       id="clipPath131917"><path
         d="m -161.282,238.78 383.178,0 0,-285.9226 -383.178,0 0,285.9226 z"
         id="path131919" /></clipPath></defs><g
     transform="matrix(1.25,0,0,-1.25,0,425.19625)"
     id="g130517" /></svg>