<?xml version="1.0" encoding="UTF-8" standalone="no"?>
<!-- Created with Inkscape (http://www.inkscape.org/) -->

<svg
   xmlns:dc="http://purl.org/dc/elements/1.1/"
   xmlns:cc="http://creativecommons.org/ns#"
   xmlns:rdf="http://www.w3.org/1999/02/22-rdf-syntax-ns#"
   xmlns:svg="http://www.w3.org/2000/svg"
   xmlns="http://www.w3.org/2000/svg"
   version="1.1"
   width="248.0325"
   height="425.19626"
   id="svg102583"
   xml:space="preserve"><metadata
     id="metadata102589"><rdf:RDF><cc:Work
         rdf:about=""><dc:format>image/svg+xml</dc:format><dc:type
           rdf:resource="http://purl.org/dc/dcmitype/StillImage" /><dc:title></dc:title></cc:Work></rdf:RDF></metadata><defs
     id="defs102587"><clipPath
       id="clipPath102599"><path
         d="m 0,340.157 198.426,0 L 198.426,0 0,0 0,340.157 z"
         id="path102601" /></clipPath></defs><g
     transform="matrix(1.25,0,0,-1.25,0,425.19625)"
     id="g102591"><path
       d="m 0,0 198.426,0 0,340.157 L 0,340.157 0,0 z"
       id="path102593"
       style="fill:#ffffff;fill-opacity:1;fill-rule:nonzero;stroke:none" /><g
       id="g102595"><g
         clip-path="url(#clipPath102599)"
         id="g102597"><g
           transform="translate(95.3799,300.7598)"
           id="g102603"><path
             d="m 0,0 c -0.008,-0.054 -0.043,-0.106 -0.113,-0.137 -0.054,-0.024 -0.103,-0.054 -0.155,-0.081 -0.367,-0.292 -0.743,-0.577 -1.122,-0.86 -0.207,-0.19 -0.412,-0.386 -0.63,-0.566 -0.55,-0.449 -1.135,-0.862 -1.668,-1.333 -0.78,-0.691 -1.321,-1.594 -2.132,-2.237 0.31,-1.224 0.608,-2.448 0.92,-3.671 0.353,-0.821 0.711,-1.636 1.056,-2.459 0.29,-0.694 0.551,-1.131 0.674,-1.317 -0.133,0.173 -0.458,0.569 -1.095,1.202 -0.22,0.22 -0.447,0.437 -0.673,0.653 -0.002,-0.012 -0.008,-0.022 -0.014,-0.032 -0.305,0.515 -0.994,0.887 -1.445,1.171 -0.386,0.241 -0.776,0.469 -1.125,0.764 -0.041,0.034 -0.079,0.071 -0.118,0.106 -0.861,0.856 -1.708,1.725 -2.501,2.644 -0.004,0.007 -0.007,0.013 -0.014,0.02 -0.628,-0.37 -1.238,-0.804 -1.817,-1.161 -1.021,-0.629 -2.069,-1.215 -3.041,-1.914 -0.19,-0.146 -0.383,-0.293 -0.575,-0.438 -0.042,-0.035 -0.087,-0.067 -0.129,-0.102 -0.013,-0.011 -0.029,-0.021 -0.044,-0.031 -0.83,-0.63 -1.66,-1.263 -2.48,-1.906 0.701,1.166 1.539,2.26 2.182,3.458 1.011,1.878 1.991,3.78 2.98,5.667 0.032,0.065 0.049,0.139 0.048,0.212 -0.724,0.312 -1.407,0.726 -2.124,1.054 -1.026,0.466 -2.13,1.161 -3.267,1.363 -0.086,0.01 -0.174,0.021 -0.261,0.034 -0.168,0.094 -0.328,0.207 -0.488,0.317 -0.072,0.051 -0.146,0.113 -0.223,0.167 0.022,0.012 0.047,0.019 0.076,0.019 0.409,0 0.806,0.095 1.237,0.061 0.63,-0.047 1.264,-0.05 1.895,-0.046 0.743,0.007 1.494,0.025 2.23,0.109 0.334,0.04 0.679,0.167 1.019,0.198 l 0,0.008 c 0.83,1.136 0.999,2.589 1.32,3.952 0.346,1.475 0.86,2.955 1.158,4.452 0.802,-2.827 1.28,-5.864 2.449,-8.523 0.425,-0.051 0.857,-0.028 1.286,-0.025 0.079,0.002 0.126,-0.039 0.152,-0.091 2.063,0.028 4.111,-0.404 6.185,-0.388 0,0 0.007,-0.001 0.011,-0.001 C -0.11,0.321 0.154,0.331 0.42,0.344 0.283,0.229 0.141,0.116 0,0 m 1.296,0.99 c -2.791,-0.178 -5.63,0.011 -8.414,0.295 0,0.008 -0.004,0.015 -0.004,0.023 -0.039,0.011 -0.074,0.034 -0.1,0.071 -0.384,0.593 -0.554,1.309 -0.814,1.958 -0.11,0.276 -0.211,0.552 -0.31,0.827 -0.073,0.168 -0.131,0.34 -0.181,0.515 -0.132,0.393 -0.259,0.786 -0.384,1.184 -0.504,1.589 -1.033,3.128 -1.416,4.747 -0.011,0.007 -0.022,0.012 -0.033,0.013 -0.053,-0.169 -0.128,-0.331 -0.215,-0.489 -0.071,-1.366 -0.995,-2.711 -1.372,-4.002 -0.47,-1.609 -0.994,-3.202 -1.53,-4.79 -0.026,-0.075 -0.088,-0.127 -0.169,-0.129 -0.052,0 -0.103,0.003 -0.155,0.005 -10e-4,-0.01 -0.005,-0.02 -0.007,-0.03 -2.331,0.226 -4.748,-0.087 -7.061,-0.324 -0.225,-0.021 -0.354,-0.156 -0.396,-0.311 0.143,-0.104 0.304,-0.199 0.475,-0.282 0.653,-0.102 1.282,-0.276 1.904,-0.475 0.06,-0.034 0.119,-0.067 0.183,-0.091 0.03,-0.012 0.055,-0.006 0.073,0.01 0.409,-0.136 0.817,-0.278 1.229,-0.413 0.88,-0.292 1.751,-0.598 2.512,-1.142 0.054,-0.039 0.076,-0.097 0.074,-0.151 0.299,-0.15 0.565,-0.34 0.638,-0.572 -0.23,-0.544 -0.496,-1.115 -0.65,-1.697 -0.856,-1.516 -1.754,-3.003 -2.519,-4.574 -0.464,-0.954 -0.92,-1.928 -1.502,-2.816 -0.243,-0.369 -0.509,-0.713 -0.784,-1.052 -0.017,-0.044 -0.019,-0.09 -0.017,-0.131 -0.119,-0.249 0.207,-0.608 0.465,-0.413 2.907,2.196 6.312,3.888 9.102,6.25 0.907,-0.852 1.731,-1.808 2.638,-2.655 1.486,-1.393 3.32,-2.548 4.631,-4.094 0.162,-0.189 0.416,0.02 0.378,0.222 -0.142,0.81 -1.466,3.433 -2.135,5.647 -0.299,0.8 -0.549,1.617 -0.775,2.44 -0.008,0.035 -0.009,0.066 -0.006,0.095 -0.002,0.072 0.029,0.142 0.112,0.189 0.19,0.106 0.377,0.222 0.563,0.336 0.087,0.105 0.195,0.188 0.327,0.243 0.078,0.031 0.15,0.067 0.224,0.101 0.709,0.458 1.398,0.948 2.088,1.438 0.443,0.462 0.899,0.911 1.322,1.396 0.441,0.505 0.778,1.092 1.229,1.588 C 0.817,0.285 1.195,0.569 1.505,0.903 1.454,0.958 1.385,0.995 1.296,0.99"
             id="path102605"
             style="fill:#000000;fill-opacity:1;fill-rule:nonzero;stroke:none" /></g><g
           transform="translate(71.7246,306.1743)"
           id="g102607"><path
             d="M 0,0 C -0.005,-0.031 -0.024,-0.059 -0.063,-0.077 -0.093,-0.09 -0.118,-0.106 -0.146,-0.121 -0.348,-0.28 -0.554,-0.437 -0.76,-0.59 -0.875,-0.696 -0.985,-0.802 -1.105,-0.898 -1.406,-1.145 -1.727,-1.372 -2.017,-1.63 c -0.428,-0.377 -0.722,-0.871 -1.167,-1.223 0.17,-0.668 0.334,-1.338 0.503,-2.007 0.194,-0.449 0.389,-0.895 0.578,-1.345 0.159,-0.38 0.301,-0.618 0.37,-0.721 -0.073,0.095 -0.251,0.312 -0.6,0.657 -0.121,0.121 -0.244,0.24 -0.367,0.357 -0.002,-0.006 -0.005,-0.011 -0.008,-0.016 -0.167,0.282 -0.544,0.485 -0.792,0.639 -0.21,0.132 -0.423,0.258 -0.615,0.419 -0.022,0.02 -0.042,0.039 -0.063,0.057 -0.471,0.468 -0.934,0.944 -1.367,1.446 -0.003,0.003 -0.006,0.009 -0.009,0.012 -0.344,-0.202 -0.676,-0.44 -0.994,-0.634 -0.558,-0.346 -1.132,-0.665 -1.663,-1.047 -0.103,-0.08 -0.211,-0.162 -0.315,-0.239 -0.023,-0.02 -0.046,-0.038 -0.07,-0.058 -0.008,-0.007 -0.015,-0.011 -0.024,-0.016 -0.454,-0.346 -0.906,-0.692 -1.358,-1.042 0.384,0.636 0.843,1.236 1.195,1.891 0.553,1.027 1.089,2.068 1.63,3.1 0.017,0.035 0.026,0.076 0.026,0.115 -0.395,0.17 -0.769,0.396 -1.161,0.576 -0.563,0.256 -1.165,0.636 -1.787,0.745 -0.048,0.006 -0.095,0.013 -0.142,0.019 -0.093,0.052 -0.18,0.114 -0.268,0.173 -0.04,0.028 -0.08,0.064 -0.121,0.091 0.012,0.007 0.024,0.012 0.041,0.012 0.224,0 0.441,0.05 0.675,0.032 0.345,-0.026 0.692,-0.027 1.038,-0.024 0.407,0.003 0.816,0.013 1.22,0.058 0.182,0.021 0.371,0.092 0.557,0.11 l 0,0.005 c 0.454,0.619 0.546,1.415 0.721,2.16 0.19,0.807 0.471,1.617 0.634,2.436 0.438,-1.547 0.699,-3.209 1.338,-4.663 0.233,-0.027 0.47,-0.014 0.705,-0.013 0.042,0.002 0.069,-0.021 0.082,-0.049 1.129,0.014 2.25,-0.222 3.382,-0.214 l 0.005,0 C -0.061,0.174 0.084,0.179 0.23,0.187 0.154,0.124 0.077,0.062 0,0 m 0.709,0.54 c -1.527,-0.097 -3.078,0.008 -4.601,0.161 -0.002,0.005 -0.003,0.008 -0.004,0.013 -0.02,0.007 -0.041,0.019 -0.053,0.039 -0.211,0.323 -0.305,0.716 -0.446,1.071 -0.06,0.15 -0.116,0.3 -0.17,0.452 -0.039,0.091 -0.072,0.185 -0.099,0.282 -0.072,0.215 -0.143,0.431 -0.21,0.647 C -5.148,4.074 -5.439,4.917 -5.648,5.802 -5.654,5.806 -5.66,5.807 -5.666,5.809 -5.695,5.716 -5.736,5.627 -5.784,5.54 -5.822,4.794 -6.328,4.059 -6.533,3.352 -6.791,2.473 -7.077,1.603 -7.371,0.733 -7.385,0.691 -7.418,0.664 -7.464,0.662 -7.492,0.662 -7.52,0.665 -7.549,0.665 -7.55,0.66 -7.551,0.654 -7.552,0.648 c -1.275,0.124 -2.596,-0.046 -3.863,-0.177 -0.121,-0.012 -0.192,-0.085 -0.215,-0.17 0.077,-0.056 0.165,-0.109 0.26,-0.154 0.357,-0.056 0.7,-0.152 1.042,-0.26 0.031,-0.018 0.064,-0.035 0.099,-0.049 0.016,-0.007 0.031,-0.005 0.041,0.006 0.223,-0.074 0.446,-0.153 0.67,-0.227 0.483,-0.16 0.957,-0.326 1.374,-0.625 0.032,-0.021 0.042,-0.052 0.041,-0.081 0.164,-0.083 0.311,-0.186 0.349,-0.313 -0.127,-0.299 -0.27,-0.612 -0.354,-0.928 -0.47,-0.829 -0.96,-1.643 -1.379,-2.502 -0.253,-0.522 -0.502,-1.055 -0.821,-1.541 -0.132,-0.201 -0.279,-0.39 -0.428,-0.574 -0.011,-0.025 -0.012,-0.049 -0.011,-0.072 -0.065,-0.137 0.114,-0.333 0.255,-0.227 1.59,1.203 3.452,2.126 4.977,3.419 0.496,-0.465 0.948,-0.989 1.445,-1.452 0.812,-0.762 1.813,-1.394 2.531,-2.238 0.089,-0.105 0.228,0.01 0.207,0.12 -0.078,0.442 -0.801,1.878 -1.168,3.09 -0.163,0.436 -0.301,0.883 -0.424,1.333 -0.005,0.02 -0.005,0.036 -0.003,0.052 -0.002,0.04 0.015,0.077 0.061,0.103 0.105,0.059 0.206,0.121 0.308,0.184 0.048,0.057 0.106,0.103 0.179,0.133 0.042,0.018 0.081,0.037 0.122,0.056 0.388,0.25 0.765,0.517 1.143,0.786 0.242,0.253 0.491,0.499 0.721,0.763 0.243,0.276 0.428,0.597 0.674,0.869 C 0.448,0.155 0.653,0.31 0.823,0.492 0.795,0.523 0.757,0.542 0.709,0.54"
             id="path102609"
             style="fill:#000000;fill-opacity:1;fill-rule:nonzero;stroke:none" /></g><g
           transform="translate(74.0137,284.4844)"
           id="g102611"><path
             d="m 0,0 c -0.004,-0.021 -0.017,-0.042 -0.046,-0.056 -0.02,-0.007 -0.039,-0.021 -0.06,-0.03 C -0.254,-0.204 -0.402,-0.318 -0.555,-0.429 -0.637,-0.505 -0.718,-0.583 -0.806,-0.654 -1.024,-0.833 -1.258,-1 -1.47,-1.187 c -0.311,-0.275 -0.526,-0.634 -0.849,-0.892 0.124,-0.487 0.243,-0.975 0.366,-1.462 0.14,-0.326 0.283,-0.652 0.421,-0.981 0.116,-0.276 0.219,-0.451 0.268,-0.524 -0.052,0.069 -0.182,0.225 -0.436,0.478 -0.088,0.088 -0.178,0.174 -0.268,0.26 -0.001,-0.004 -0.003,-0.009 -0.007,-0.012 -0.121,0.205 -0.395,0.354 -0.576,0.466 -0.152,0.096 -0.308,0.187 -0.447,0.305 -0.016,0.015 -0.031,0.029 -0.047,0.042 -0.344,0.341 -0.682,0.689 -0.996,1.055 -0.002,0.002 -0.004,0.005 -0.007,0.007 -0.251,-0.147 -0.494,-0.32 -0.724,-0.462 -0.406,-0.251 -0.825,-0.484 -1.212,-0.763 -0.076,-0.059 -0.154,-0.117 -0.229,-0.174 -0.018,-0.015 -0.035,-0.028 -0.052,-0.041 -0.005,-0.005 -0.01,-0.01 -0.017,-0.013 -0.331,-0.251 -0.661,-0.504 -0.989,-0.76 0.28,0.465 0.614,0.902 0.869,1.38 0.403,0.748 0.795,1.506 1.189,2.259 0.012,0.024 0.02,0.056 0.02,0.083 -0.289,0.124 -0.561,0.29 -0.847,0.421 -0.41,0.186 -0.85,0.463 -1.303,0.543 -0.035,0.003 -0.07,0.008 -0.104,0.013 -0.067,0.038 -0.131,0.083 -0.196,0.127 -0.028,0.02 -0.057,0.046 -0.087,0.067 0.009,0.005 0.017,0.006 0.03,0.006 0.163,0 0.321,0.038 0.492,0.025 0.252,-0.02 0.505,-0.02 0.757,-0.018 0.296,0.002 0.595,0.01 0.888,0.044 0.133,0.014 0.271,0.065 0.407,0.078 l 0,0.004 c 0.33,0.451 0.397,1.031 0.525,1.574 0.138,0.589 0.344,1.179 0.462,1.776 0.319,-1.127 0.511,-2.338 0.976,-3.398 0.17,-0.02 0.341,-0.012 0.513,-0.01 0.032,0 0.05,-0.016 0.06,-0.036 0.823,0.01 1.64,-0.161 2.465,-0.155 l 0.004,0 C -0.044,0.127 0.062,0.132 0.168,0.137 0.112,0.091 0.057,0.046 0,0 M 0.517,0.395 C -0.596,0.324 -1.727,0.399 -2.836,0.512 -2.837,0.515 -2.838,0.517 -2.84,0.522 -2.854,0.526 -2.868,0.535 -2.879,0.55 -3.033,0.786 -3.1,1.071 -3.202,1.331 -3.246,1.439 -3.287,1.549 -3.327,1.66 -3.356,1.727 -3.379,1.795 -3.399,1.865 -3.451,2.021 -3.503,2.178 -3.552,2.336 -3.752,2.971 -3.963,3.585 -4.117,4.229 -4.121,4.232 -4.125,4.234 -4.129,4.234 -4.151,4.167 -4.18,4.104 -4.215,4.039 -4.244,3.495 -4.612,2.959 -4.761,2.444 -4.95,1.803 -5.157,1.169 -5.371,0.535 -5.383,0.505 -5.406,0.484 -5.439,0.484 c -0.02,0 -0.041,0.002 -0.063,0.002 0,-0.004 -0.001,-0.008 -0.002,-0.012 C -6.433,0.564 -7.396,0.438 -8.319,0.344 -8.407,0.336 -8.46,0.282 -8.477,0.22 c 0.057,-0.041 0.122,-0.078 0.19,-0.112 0.262,-0.041 0.512,-0.11 0.759,-0.189 0.023,-0.014 0.048,-0.026 0.073,-0.037 0.013,-0.004 0.022,-0.003 0.03,0.004 0.163,-0.052 0.324,-0.11 0.488,-0.165 0.351,-0.116 0.699,-0.238 1.002,-0.454 0.022,-0.017 0.03,-0.038 0.03,-0.059 0.119,-0.061 0.225,-0.137 0.255,-0.229 -0.094,-0.216 -0.199,-0.445 -0.26,-0.676 -0.341,-0.605 -0.699,-1.199 -1.004,-1.824 -0.185,-0.38 -0.366,-0.769 -0.598,-1.122 -0.097,-0.147 -0.205,-0.286 -0.313,-0.419 -0.007,-0.018 -0.007,-0.036 -0.007,-0.052 -0.047,-0.1 0.082,-0.243 0.186,-0.166 1.158,0.877 2.514,1.55 3.627,2.492 0.361,-0.341 0.69,-0.72 1.052,-1.06 0.593,-0.554 1.323,-1.015 1.845,-1.63 0.064,-0.076 0.167,0.007 0.152,0.088 -0.057,0.322 -0.585,1.368 -0.851,2.251 -0.12,0.318 -0.22,0.644 -0.31,0.972 -0.003,0.015 -0.003,0.026 -0.002,0.038 -10e-4,0.029 0.011,0.057 0.044,0.075 0.076,0.044 0.151,0.09 0.224,0.135 0.035,0.041 0.079,0.073 0.133,0.096 0.03,0.013 0.057,0.027 0.087,0.041 0.283,0.182 0.558,0.378 0.832,0.572 0.178,0.185 0.36,0.364 0.528,0.558 0.177,0.2 0.311,0.435 0.49,0.632 C 0.327,0.114 0.478,0.227 0.601,0.36 0.579,0.382 0.553,0.396 0.517,0.395"
             id="path102613"
             style="fill:#000000;fill-opacity:1;fill-rule:nonzero;stroke:none" /></g><g
           transform="translate(179.0586,305.2471)"
           id="g102615"><path
             d="M 0,0 C -0.122,0.743 -0.367,1.384 -1.055,1.79 -1.384,1.982 -1.861,2.095 -2.24,2.104 -2.949,2.121 -4.282,3.57 -4.826,4.017 -6.8,5.65 -8.994,7.36 -11.659,7.013 c -1.897,-0.242 -1.175,-3.12 0.695,-2.878 1.517,0.199 3.758,-1.973 4.764,-2.807 0.1,-0.08 1.244,-0.926 2.164,-1.517 -0.979,-0.603 -1.958,-1.235 -2.931,-1.905 0.148,0.819 -0.278,1.746 -1.349,1.746 -11.612,0 -23.182,-0.292 -34.795,-0.552 -4.549,-0.103 -9.281,-0.214 -13.801,-0.727 -6.116,-0.695 -12.434,2.181 -18.411,0.252 -1.813,-0.583 -1.119,-3.466 0.694,-2.877 4.972,1.606 10.858,-0.237 15.906,-0.538 4.99,-0.295 10.53,0.619 15.544,0.926 11.538,0.707 23.129,0.555 34.671,0.555 -1.333,-1.344 -2.238,-3.106 -4.014,-4.134 -1.655,-0.953 -0.22,-3.544 1.434,-2.589 1.775,1.022 3.127,2.395 4.375,4.011 1.613,2.085 3.787,3.081 5.991,4.377 C -0.12,-1.285 0.106,-0.67 0,0"
             id="path102617"
             style="fill:#000000;fill-opacity:1;fill-rule:nonzero;stroke:none" /></g><g
           transform="translate(85.8643,66.7148)"
           id="g102619"><path
             d="m 0,0 c -0.97,-0.89 -2.161,-1.602 -3.273,-2.295 -0.87,-0.543 -1.691,-1.149 -2.556,-1.681 -0.76,-0.469 -0.655,-1.206 -0.715,-2.046 -0.057,-0.825 -0.289,-1.806 -0.172,-2.647 -0.045,-0.056 -0.065,-0.126 -0.029,-0.211 0.014,-0.034 0.026,-0.063 0.04,-0.09 -0.424,0.098 -0.9,0.102 -1.175,0.136 -0.246,0.03 -0.502,0.062 -0.761,0.096 0.399,0.732 0.576,1.619 0.768,2.422 0.312,1.298 0.842,2.493 1.063,3.817 0.213,1.27 0.74,2.535 1.045,3.794 0.316,1.305 0.833,2.493 1.252,3.756 0.082,0.25 -0.206,0.401 -0.383,0.222 C -5.292,4.872 -5.594,4.438 -5.88,3.952 -6.087,3.604 -6.698,2.19 -6.936,3.182 -7.019,3.525 -7.007,4.021 -7.354,4.215 -7.402,4.241 -7.462,4.24 -7.518,4.218 -7.539,4.56 -7.528,4.904 -7.525,5.197 -7.524,5.435 -7.87,5.446 -7.952,5.259 -8.071,4.997 -8.081,4.572 -8.134,4.198 -8.192,4.511 -8.246,4.821 -8.344,5.128 -8.412,5.344 -8.745,5.29 -8.771,5.077 -8.818,4.68 -8.795,3.955 -8.95,3.48 -9.084,3.754 -9.054,4.09 -9.088,4.376 -9.139,4.818 -9.433,5.332 -9.617,5.734 -9.724,5.966 -10.061,5.878 -10.046,5.626 -9.972,4.378 -10.07,3.002 -10.177,1.76 c -0.101,-1.196 0.099,-2.424 0.073,-3.626 -0.032,-1.373 -0.08,-2.734 -0.245,-4.101 -0.072,-0.587 -0.325,-1.507 -0.125,-2.145 -0.068,-0.124 -0.03,-0.31 0.153,-0.332 l 0.11,-0.015 c 0.15,-0.018 0.327,0.148 0.24,0.305 -0.435,0.779 0.118,2.53 0.205,3.371 0.122,1.202 0.117,2.434 0.112,3.641 -0.007,1.189 -0.132,2.362 -0.014,3.55 0.058,0.594 0.089,1.217 0.095,1.836 0.035,-0.154 0.064,-0.309 0.09,-0.47 C -9.43,3.43 -9.306,3.117 -9.042,2.89 -8.95,2.812 -8.8,2.837 -8.729,2.928 c 0.142,0.189 0.221,0.423 0.272,0.674 0.019,-0.086 0.04,-0.172 0.064,-0.257 0.052,-0.181 0.277,-0.16 0.382,-0.054 0.065,0.063 0.113,0.137 0.15,0.213 0.032,-0.122 0.069,-0.243 0.119,-0.352 0.063,-0.142 0.279,-0.174 0.378,-0.072 0.025,-0.112 0.053,-0.221 0.088,-0.333 0.075,-0.252 0.228,-0.409 0.475,-0.477 0.33,-0.091 0.649,0.391 0.791,0.595 0.194,0.281 0.364,0.569 0.536,0.853 -0.179,-0.481 -0.357,-0.963 -0.5,-1.465 -0.333,-1.169 -0.617,-2.353 -0.934,-3.529 -0.38,-1.398 -0.739,-2.783 -1.178,-4.167 -0.328,-1.042 -0.458,-2.25 -1.01,-3.203 -0.005,-0.008 -0.008,-0.017 -0.012,-0.025 -0.819,0.118 -1.664,0.272 -2.435,0.502 -0.184,0.229 -0.562,0.317 -0.948,0.294 0.181,1.299 0.428,2.584 0.587,3.888 0.107,0.883 -0.316,1.578 -0.796,2.278 -1.384,2.011 -2.386,4.605 -2.561,7.068 -0.201,2.871 1.162,5.991 3.366,7.8 2.351,1.929 5.383,2.031 8.166,1.073 C -1.067,13.317 0.726,10.74 1.768,8.245 2.372,6.798 2.384,5.338 2.193,3.808 1.992,2.168 1.179,1.081 0,0 m -6.492,-10.352 -0.842,0.105 c -0.687,0.081 -1.447,-0.023 -2.102,0.218 -0.688,0.254 -1.301,0.423 -2.026,0.51 -0.477,0.059 -0.926,0.235 -1.405,0.278 -0.404,0.036 -0.253,0.924 0.218,0.878 0.04,-0.003 0.204,-0.015 0.372,-0.028 0.006,-0.004 0.008,-0.008 0.016,-0.011 0.133,-0.047 0.269,-0.091 0.407,-0.13 0.054,-0.172 0.288,-0.222 0.384,-0.1 0.787,-0.183 1.603,-0.265 2.377,-0.494 0.46,-0.138 1.014,-0.133 1.49,-0.191 l 0.334,-0.042 c 0.524,0.033 0.782,-0.298 0.777,-0.993 m -0.063,-1.299 c -0.301,-0.151 -0.669,-0.072 -0.986,-0.035 -0.883,0.11 -1.66,0.171 -2.539,0.367 -0.68,0.152 -1.376,0.196 -2.049,0.366 -0.26,0.063 -1.267,0.131 -1.209,0.593 0.03,0.248 0.146,0.464 0.248,0.686 0.336,-0.127 0.795,-0.158 1.149,-0.236 0.915,-0.201 1.784,-0.328 2.672,-0.655 0.455,-0.168 1.135,-0.057 1.62,-0.094 0.247,-0.021 0.518,-0.085 0.786,-0.132 0,-0.099 0.053,-0.197 0.182,-0.213 0.279,-0.034 0.389,-0.517 0.126,-0.647 m -6.759,0.551 c 0.052,-0.031 0.107,-0.062 0.171,-0.092 0.539,-0.251 1.363,-0.309 1.952,-0.384 0.854,-0.107 1.662,-0.399 2.51,-0.53 0.387,-0.058 1.216,-0.212 1.866,-0.112 -0.018,-0.093 0.014,-0.191 0.124,-0.237 -0.178,-0.22 -0.356,-0.441 -0.534,-0.657 -0.231,0.048 -0.464,0.09 -0.701,0.126 -0.358,0.06 -0.739,0.048 -1.101,0.063 -0.784,0.027 -1.564,0.152 -2.342,0.248 -0.906,0.11 -2.735,0.534 -1.945,1.575 m 5.116,-3.202 c -0.708,0.12 -1.417,0.228 -2.125,0.352 -0.648,0.112 -1.255,0.138 -1.907,0.158 -0.451,0.016 -2.087,0.635 -1.315,1.18 0.261,-0.127 0.611,-0.182 0.826,-0.233 0.823,-0.187 1.642,-0.316 2.484,-0.421 0.861,-0.103 1.734,-0.076 2.59,-0.219 0.207,-0.035 0.494,-0.115 0.767,-0.129 -0.038,-0.067 -0.039,-0.149 0.031,-0.224 0.704,-0.762 -1.049,-0.514 -1.351,-0.464 m -1.274,-0.515 c -0.264,-0.387 -0.633,-0.514 -1.103,-0.378 -0.258,0.073 -0.48,0.535 -0.633,0.747 -0.046,0.062 -0.11,0.122 -0.184,0.18 0.19,-0.013 0.382,-0.03 0.58,-0.055 0.577,-0.079 1.147,-0.19 1.718,-0.288 -0.177,-0.343 -0.23,0.01 -0.378,-0.206 m 5.227,29.681 c -2.392,0.718 -4.918,0.565 -7.061,-0.743 -2.191,-1.335 -3.505,-3.572 -4.133,-6.013 -0.718,-2.778 0.147,-5.465 1.197,-8.023 0.421,-1.023 0.975,-1.749 1.561,-2.669 0.875,-1.369 -0.058,-3.814 -0.264,-5.311 -0.002,-0.025 10e-4,-0.045 0.006,-0.067 -0.305,-0.097 -0.559,-0.27 -0.656,-0.509 -0.096,-0.245 -0.021,-0.629 0.151,-0.9 -0.217,-0.552 -0.463,-1.038 -0.204,-1.432 -0.374,-0.449 -0.509,-0.945 -0.219,-1.497 -0.337,-0.25 -0.695,-0.643 -0.325,-0.948 0.397,-0.327 0.745,-0.638 1.238,-0.799 0.267,-0.085 0.53,-0.133 0.794,-0.162 0.339,-0.38 0.699,-0.705 1.022,-1.103 0.208,-0.253 0.519,-0.386 0.846,-0.378 0.358,0.003 0.753,0.061 0.995,0.359 0.209,0.262 0.486,0.375 0.65,0.646 0.127,-0.018 0.256,-0.04 0.384,-0.057 0.598,-0.082 1.163,-0.285 1.755,-0.101 0.471,0.15 0.244,1.014 0.024,1.268 0.061,0.019 0.122,0.046 0.171,0.087 0.461,0.353 0.364,1.096 -0.091,1.384 0.19,0.084 0.341,0.208 0.419,0.392 0.115,0.271 0.001,0.652 -0.214,0.9 0.516,0.122 0.429,0.885 0.32,1.251 -0.065,0.217 -0.227,0.362 -0.436,0.461 0.071,0.057 0.108,0.158 0.082,0.262 -0.153,0.543 0.064,1.215 0.075,1.773 0.012,0.653 0.069,1.31 0.135,1.961 0.072,0.719 0.673,0.81 1.143,1.223 0.471,0.416 1.026,0.743 1.57,1.055 2.192,1.257 4.749,2.837 5.657,5.31 1.788,4.873 -1.815,10.949 -6.592,12.38"
             id="path102621"
             style="fill:#000000;fill-opacity:1;fill-rule:nonzero;stroke:none" /></g><g
           transform="translate(66.9736,74.417)"
           id="g102623"><path
             d="m 0,0 c -0.485,-0.217 -1.17,0.042 -1.663,0.149 -0.526,0.116 -1.051,0.236 -1.579,0.34 -0.374,0.075 -0.503,-0.499 -0.131,-0.574 0.679,-0.135 1.352,-0.291 2.03,-0.437 0.485,-0.104 1.05,-0.252 1.521,-0.041 C 0.52,-0.409 0.346,0.155 0,0"
             id="path102625"
             style="fill:#000000;fill-opacity:1;fill-rule:nonzero;stroke:none" /></g><g
           transform="translate(68.2998,79.7441)"
           id="g102627"><path
             d="m 0,0 c -1.823,0.472 -3.666,0.783 -5.422,1.488 -1.536,0.613 -2.962,1.493 -4.352,2.377 -0.322,0.203 -0.59,-0.321 -0.272,-0.522 1.54,-0.98 3.11,-1.881 4.807,-2.561 1.64,-0.657 3.406,-0.915 5.109,-1.358 C 0.239,-0.672 0.367,-0.097 0,0"
             id="path102629"
             style="fill:#000000;fill-opacity:1;fill-rule:nonzero;stroke:none" /></g><g
           transform="translate(72.8203,84.1826)"
           id="g102631"><path
             d="M 0,0 C -0.454,0.579 -0.853,1.198 -1.309,1.779 -1.542,2.072 -2.038,1.756 -1.805,1.456 -1.348,0.879 -0.95,0.258 -0.494,-0.319 -0.261,-0.616 0.236,-0.3 0,0"
             id="path102633"
             style="fill:#000000;fill-opacity:1;fill-rule:nonzero;stroke:none" /></g><g
           transform="translate(77.3174,95.6035)"
           id="g102635"><path
             d="m 0,0 c 0.072,-3.14 -0.356,-6.596 0.333,-9.673 0.082,-0.37 0.643,-0.191 0.562,0.178 C 0.222,-6.48 0.661,-3.055 0.588,0.021 0.581,0.401 -0.009,0.379 0,0"
             id="path102637"
             style="fill:#000000;fill-opacity:1;fill-rule:nonzero;stroke:none" /></g><g
           transform="translate(84.1572,87.7539)"
           id="g102639"><path
             d="m 0,0 c -0.111,-0.291 -0.208,-0.584 -0.319,-0.875 -0.105,-0.271 -0.23,-0.681 -0.534,-0.796 -0.355,-0.132 -0.178,-0.692 0.178,-0.559 0.772,0.285 0.935,1.274 1.198,1.957 C 0.657,0.077 0.137,0.354 0,0"
             id="path102641"
             style="fill:#000000;fill-opacity:1;fill-rule:nonzero;stroke:none" /></g><g
           transform="translate(93.3154,90.9551)"
           id="g102643"><path
             d="m 0,0 c -2.245,-2.373 -4.252,-4.978 -6.529,-7.314 -0.266,-0.274 0.171,-0.669 0.436,-0.398 2.277,2.337 4.284,4.943 6.531,7.317 C 0.699,-0.119 0.262,0.277 0,0"
             id="path102645"
             style="fill:#000000;fill-opacity:1;fill-rule:nonzero;stroke:none" /></g><g
           transform="translate(91.6592,79.9287)"
           id="g102647"><path
             d="m 0,0 c -0.418,-0.322 -0.797,-0.698 -1.312,-0.858 -0.363,-0.115 -0.185,-0.676 0.178,-0.563 0.571,0.178 0.99,0.567 1.455,0.928 C 0.616,-0.264 0.301,0.235 0,0"
             id="path102649"
             style="fill:#000000;fill-opacity:1;fill-rule:nonzero;stroke:none" /></g><g
           transform="translate(107.542,75.0693)"
           id="g102651"><path
             d="m 0,0 c -2.782,-0.028 -5.517,-0.06 -8.286,-0.343 -0.589,-0.059 -7.345,-1.205 -7.404,-1.036 -0.125,0.357 -0.69,0.179 -0.562,-0.18 0.191,-0.545 0.675,-0.409 1.177,-0.367 1.562,0.13 3.11,0.526 4.664,0.738 3.481,0.476 6.923,0.564 10.432,0.6 C 0.402,-0.585 0.378,0.003 0,0"
             id="path102653"
             style="fill:#000000;fill-opacity:1;fill-rule:nonzero;stroke:none" /></g><g
           transform="translate(93.6074,68.625)"
           id="g102655"><path
             d="M 0,0 C -0.821,0.162 -1.618,0.371 -2.381,0.721 -2.725,0.879 -3,0.354 -2.652,0.198 c 0.808,-0.37 1.65,-0.601 2.519,-0.774 C 0.242,-0.649 0.372,-0.073 0,0"
             id="path102657"
             style="fill:#000000;fill-opacity:1;fill-rule:nonzero;stroke:none" /></g><g
           transform="translate(53.8184,49.4404)"
           id="g102659"><path
             d="m 0,0 0,24.324 c 0,7.858 0.516,15.753 0.357,23.6 -0.124,6.118 -0.628,12.326 0.248,18.421 0.387,2.684 1.492,5.187 4.004,6.466 3.69,1.877 8.828,1.772 12.865,1.737 7.613,-0.066 15.139,-0.64 22.767,-0.426 3.446,0.097 6.895,0.124 10.341,0.095 3.355,-0.029 5.784,-0.703 6.397,-4.301 2.521,-14.824 0.545,-30.019 1.002,-44.969 0.409,-13.37 1.482,-26.82 0.838,-40.196 -0.23,-4.781 0.177,-11.341 -5.209,-13.241 -3.92,-1.384 -8.453,-0.943 -12.528,-0.807 -5.448,0.183 -10.875,-0.12 -16.33,0.174 -3.513,0.189 -7.022,0.425 -10.537,0.533 -2.863,0.088 -6.134,-0.5 -8.897,0.315 -3.097,0.914 -4.422,4.676 -4.949,7.485 -0.505,2.694 -0.052,5.437 -0.139,8.152 -0.15,4.672 0.254,9.532 -0.364,14.167 -0.122,0.923 -2.29,0.397 -2.16,-0.578 0.361,-2.718 0.21,-5.504 0.172,-8.237 -0.039,-2.746 0.258,-5.48 0.162,-8.224 -0.167,-4.795 0.106,-11.669 5.38,-13.878 2.588,-1.084 5.37,-0.625 8.101,-0.638 4.157,-0.021 8.309,-0.335 12.457,-0.57 5.963,-0.337 11.899,-0.024 17.859,-0.224 4.184,-0.141 8.585,-0.291 12.59,1.122 4.397,1.552 5.538,4.756 6.097,9.084 0.999,7.724 0.618,15.582 0.427,23.343 -0.182,7.475 -0.546,14.941 -0.789,22.414 -0.471,14.477 1.276,29.057 -0.729,43.457 -0.338,2.423 -0.494,4.661 -2.719,6.032 -1.772,1.093 -4.235,1.069 -6.233,1.062 C 42.742,75.669 34.972,75.198 27.241,75.603 20.133,75.974 13.016,76.547 6.036,74.778 1.316,73.583 -0.986,70.246 -1.658,65.574 -2.548,59.387 -1.931,53.006 -1.805,46.798 -1.646,38.942 -2.182,31.023 -2.182,23.156 l 0,-23.351 C -2.182,-1.27 0,-0.895 0,0"
             id="path102661"
             style="fill:#000000;fill-opacity:1;fill-rule:nonzero;stroke:none" /></g><g
           transform="translate(80.0615,120.5508)"
           id="g102663"><path
             d="M 0,0 C -0.923,-0.022 -2.591,-0.446 -2.73,0.959 -3.134,0.644 -3.538,0.327 -3.941,0.011 -1.781,0.361 0.383,0.212 2.56,0.259 4.164,0.293 5.841,0.426 7.429,0.128 7.937,0.032 6.409,-0.093 6.271,-0.102 5.683,-0.138 5.09,-0.126 4.5,-0.123 3.043,-0.116 1.581,-0.13 0.121,-0.123 -0.759,-0.118 -2.153,-1.45 -0.689,-1.457 1.006,-1.465 9.518,-2.438 9.94,0.033 10.406,2.75 -2.247,1.561 -3.68,1.329 -4.154,1.252 -4.952,0.997 -4.891,0.381 -4.694,-1.608 -2.306,-1.371 -0.811,-1.334 0.06,-1.313 1.459,0.036 0,0"
             id="path102665"
             style="fill:#000000;fill-opacity:1;fill-rule:nonzero;stroke:none" /></g><g
           transform="translate(61.8232,114.4326)"
           id="g102667"><path
             d="m 0,0 c -1.46,-0.035 -2.907,-0.151 -4.363,-0.001 -0.434,0.045 -1.751,-0.163 -1.773,-0.762 -0.21,-5.776 0.099,-11.55 0.117,-17.327 0.019,-6.102 -0.605,-12.185 -0.585,-18.289 0.04,-11.881 1.614,-23.765 1.045,-35.642 -0.126,-2.629 -0.254,-5.259 -0.219,-7.892 0.017,-1.251 0.804,-1.429 1.902,-1.446 5.494,-0.09 10.978,-0.214 16.479,-0.214 5.855,0 11.7,-0.002 17.552,0.219 5.79,0.217 11.592,0.479 17.377,0.018 0.355,-0.028 1.703,0.143 1.762,0.651 0.273,2.383 -0.091,4.699 -0.246,7.078 -0.199,3.052 0.077,6.186 -0.037,9.257 -0.223,6.011 -0.029,11.968 -0.08,17.968 -0.023,2.576 -0.437,5.12 -0.608,7.687 -0.201,3 -0.028,6.018 0.124,9.015 0.316,6.186 -0.395,12.331 -0.632,18.512 -0.088,2.323 -0.237,4.669 -0.104,6.991 0.073,1.285 0.363,3.247 -0.713,4.202 -0.393,0.349 -1.341,0.356 -1.81,0.346 C 43.78,0.342 42.443,0.464 41.047,0.594 38.522,0.828 35.979,0.867 33.446,0.866 27.765,0.863 22.081,0.483 16.394,0.472 10.819,0.46 5.27,0.597 -0.269,-0.148 c -0.912,-0.123 -1.896,-1.089 -0.378,-0.885 5.042,0.679 10.107,0.555 15.181,0.557 5.506,0.002 10.988,0.211 16.489,0.374 2.616,0.078 5.237,-0.013 7.846,-0.187 1.284,-0.085 6.169,-0.002 6.574,-1.284 0.426,-1.35 0.088,-2.989 0.05,-4.376 -0.079,-2.868 0.152,-5.783 0.279,-8.649 0.251,-5.575 0.75,-11.025 0.466,-16.609 -0.272,-5.332 0.384,-10.449 0.532,-15.754 0.077,-2.745 -0.249,-5.477 -0.234,-8.221 0.016,-2.928 0.219,-5.866 0.284,-8.795 0.063,-2.823 0.242,-5.628 0.088,-8.453 -0.157,-2.889 0.58,-5.721 0.247,-8.612 0.588,0.217 1.175,0.435 1.762,0.651 -10.435,0.83 -20.999,-0.235 -31.454,-0.235 -5.891,0 -11.798,-0.145 -17.68,0.188 -0.921,0.053 -1.833,0.017 -2.753,0.032 -0.925,0.014 -0.654,1.678 -0.653,2.187 0.006,3.226 0.224,6.447 0.353,9.667 0.453,11.203 -1.139,22.498 -1.176,33.713 -0.019,5.781 0.557,11.547 0.588,17.327 0.031,5.779 -0.328,11.549 -0.118,17.327 l -1.772,-0.761 c 1.617,-0.166 3.211,-0.04 4.832,-0.001 C -0.294,-0.932 1.44,0.034 0,0"
             id="path102669"
             style="fill:#000000;fill-opacity:1;fill-rule:nonzero;stroke:none" /></g><g
           transform="translate(83.6143,25.4355)"
           id="g102671"><path
             d="m 0,0 c -1.095,0.24 -2.758,-0.046 -3.695,0.544 -0.772,0.486 -0.701,2.09 -0.499,2.789 0.162,0.565 1.995,0.254 2.488,0.242 C 0.074,3.532 3.239,4.766 4.196,2.71 4.672,1.687 4.557,-0.078 3.128,-0.216 1.983,-0.326 0.771,-0.072 -0.353,0.122 -0.896,0.216 -2.87,-0.674 -1.724,-0.872 0.063,-1.18 5.378,-2.037 6.321,0.477 6.776,1.687 6.615,3.201 5.775,4.185 4.868,5.249 2.46,4.856 1.304,4.748 -0.579,4.572 -4.886,5.352 -6.136,3.321 -6.789,2.26 -6.584,0.658 -5.72,-0.233 -4.88,-1.101 -2.798,-0.688 -1.754,-0.916 -1.195,-1.039 0.717,-0.156 0,0"
             id="path102673"
             style="fill:#000000;fill-opacity:1;fill-rule:nonzero;stroke:none" /></g><g
           transform="translate(64.0703,26.1484)"
           id="g102675"><path
             d="M 0,0 C -0.121,0.87 -0.266,1.734 -0.339,2.609 -0.853,2.361 -1.367,2.114 -1.882,1.866 -0.74,1.909 0.399,1.978 1.542,1.961 1.748,1.957 2.955,2.045 2.917,1.625 2.859,0.991 2.842,0.392 2.949,-0.237 3.03,-0.718 5.207,-0.23 5.109,0.341 4.982,1.088 5.041,1.804 5.109,2.553 5.07,2.634 5.006,2.681 4.914,2.694 2.961,2.982 1.008,2.849 -0.956,2.774 -1.284,2.763 -2.541,2.538 -2.499,2.031 -2.427,1.155 -2.281,0.291 -2.16,-0.578 -2.096,-1.045 0.082,-0.587 0,0"
             id="path102677"
             style="fill:#000000;fill-opacity:1;fill-rule:nonzero;stroke:none" /></g><g
           transform="translate(100.2852,25.7803)"
           id="g102679"><path
             d="m 0,0 c -0.163,-0.058 -0.972,-0.146 -0.445,-0.143 0.215,0.001 0.429,-0.004 0.644,-0.006 0.584,-0.007 1.166,0.016 1.746,0.08 0.89,0.097 2.64,0.485 2.741,1.618 0.212,2.405 -5.516,2.394 -5.372,0.327 l 1.515,0.85 C 0.606,2.737 0.415,2.82 0.253,2.974 0.202,2.794 0.15,2.613 0.1,2.433 0.42,2.69 0.739,2.944 1.076,3.18 0.432,3.128 -0.214,3.076 -0.858,3.025 -0.82,2.739 -0.815,2.472 -0.854,2.187 -0.16,2.372 0.535,2.559 1.229,2.744 1.247,2.731 0.973,2.909 0.957,2.971 0.787,3.647 -1.376,3.08 -1.203,2.393 -1.152,2.188 -0.939,2.047 -0.786,1.932 -0.348,1.601 1.206,1.821 1.298,2.489 1.35,2.866 1.354,3.227 1.302,3.604 1.208,4.296 -0.377,3.628 -0.633,3.449 -0.97,3.214 -1.29,2.96 -1.609,2.702 -1.745,2.593 -1.97,2.326 -1.763,2.161 -1.243,1.746 -0.69,1.643 -0.04,1.604 0.397,1.579 1.517,1.855 1.475,2.454 1.455,2.744 1.16,2.253 0.94,2.222 1.057,2.238 1.215,2.194 1.332,2.177 1.615,2.136 1.939,2.054 2.183,1.896 2.405,1.752 2.486,1.456 2.525,1.209 2.563,0.97 2.345,0.989 2.609,1.069 1.661,0.783 0.266,1.155 -0.822,0.771 -1.039,0.695 -1.758,0.298 -1.419,-0.021 -1.071,-0.348 -0.376,-0.133 0,0"
             id="path102681"
             style="fill:#000000;fill-opacity:1;fill-rule:nonzero;stroke:none" /></g><g
           transform="translate(65.0371,26.5586)"
           id="g102683"><path
             d="m 0,0 0.934,0 c 0.397,0 0.986,0.3 1.049,0.735 0.07,0.487 -0.519,0.57 -0.86,0.57 l -0.934,0 c -0.397,0 -0.986,-0.3 -1.049,-0.736 C -0.93,0.083 -0.341,0 0,0"
             id="path102685"
             style="fill:#100f0d;fill-opacity:1;fill-rule:nonzero;stroke:none" /></g><g
           transform="translate(64.915,25.5215)"
           id="g102687"><path
             d="M 0,0 C 0.181,0.021 0.357,0.022 0.54,0.022 0.959,0.023 1.524,0.171 1.792,0.523 2.062,0.881 1.563,1.022 1.294,1.022 0.955,1.021 0.617,1.007 0.279,0.965 -0.063,0.923 -0.69,0.743 -0.803,0.353 -0.919,-0.051 -0.206,-0.025 0,0"
             id="path102689"
             style="fill:#100f0d;fill-opacity:1;fill-rule:nonzero;stroke:none" /></g><g
           transform="translate(0.084,48.1445)"
           id="g102691"><path
             d="m 0,0 0,0.787 c 6.176,2.532 35.185,16.243 41.157,18.856 2.166,0.946 4.142,1.991 6.17,2.493 C 46.881,21.129 45.591,20.722 44.701,20.299 37.467,16.854 7.19,3.324 0,0"
             id="path102693"
             style="fill:#000000;fill-opacity:1;fill-rule:evenodd;stroke:none" /></g><g
           transform="translate(0.084,41.3184)"
           id="g102695"><path
             d="M 0,0 0,0.92 C 4.646,3.195 9.634,4.63 14.307,6.696 18.984,8.761 42.987,19.25 47.783,20.98 47.072,19.845 45.646,19.631 44.5,19.142 43.339,18.647 42.227,17.978 41.088,17.437 34.003,14.065 6.932,3.349 0,0"
             id="path102697"
             style="fill:#000000;fill-opacity:1;fill-rule:evenodd;stroke:none" /></g><g
           transform="translate(0.084,33.0479)"
           id="g102699"><path
             d="m 0,0 0,0.788 c 5.351,2.441 10.825,4.729 16.277,7.09 2.702,1.169 5.457,2.258 8.138,3.412 2.705,1.164 20.475,9.067 23.368,9.583 -0.942,-1.095 -2.385,-1.51 -3.677,-2.1 C 34.635,14.445 9.435,4.252 0,0"
             id="path102701"
             style="fill:#000000;fill-opacity:1;fill-rule:evenodd;stroke:none" /></g><g
           transform="translate(0.084,24.9082)"
           id="g102703"><path
             d="m 0,0 0,0.658 c 9.356,3.647 29.099,12.603 38.33,16.308 1.607,0.643 3.279,0.999 4.858,1.705 1.5,0.672 2.913,1.684 4.595,1.838 -1.178,-1.251 -2.975,-1.466 -4.464,-2.1 C 38.168,16.215 16.672,6.867 0,0"
             id="path102705"
             style="fill:#000000;fill-opacity:1;fill-rule:evenodd;stroke:none" /></g><g
           transform="translate(0.084,17.8203)"
           id="g102707"><path
             d="m 0,0 0,0.788 c 5.783,2.487 11.678,4.719 17.59,7.09 4.397,1.76 14.638,5.903 18.904,7.518 1.543,0.586 3.131,0.906 4.725,1.445 2.219,0.75 4.222,2.001 6.564,2.362 C 46.381,17.97 44.505,17.432 42.793,16.841 37.116,14.88 26.246,10.693 21.003,8.533 14.036,5.662 7.008,2.819 0,0"
             id="path102709"
             style="fill:#000000;fill-opacity:1;fill-rule:evenodd;stroke:none" /></g><g
           transform="translate(0.084,8.7617)"
           id="g102711"><path
             d="m 0,0 0,0.788 c 14.501,5.569 29.709,11.702 44.895,16.541 0.914,0.291 1.867,0.991 2.888,0.788 C 46.252,16.56 43.951,16.433 42.007,15.754 27.828,10.799 13.399,5.355 0,0"
             id="path102713"
             style="fill:#000000;fill-opacity:1;fill-rule:evenodd;stroke:none" /></g><g
           transform="translate(177.7705,238.0239)"
           id="g102715"><path
             d="M 0,0 C 0.271,-0.045 0.244,0.205 0.563,0.113 0.543,0.281 0.602,0.526 0.45,0.562 0.437,0.238 -0.028,0.367 0,0 M -1.011,0 C -0.2,0.052 0.533,0.776 0.45,1.348 0.199,0.662 -0.837,0.763 -1.011,0 m 0.338,1.686 C -0.828,1 -2.222,0.411 -1.909,0 -0.964,0.667 0.167,1.743 0.45,2.695 0.161,2.272 -0.229,1.953 -0.673,1.686 m -2.134,0 C -3.392,1.166 -4.513,0.486 -4.379,0 l 1.685,0 c 0.534,0.595 1.119,1.122 1.683,1.686 0.539,0.538 1.362,1.092 1.461,2.02 C -0.988,2.935 -1.737,0.878 -3.144,0.45 -2.657,1.648 -1.198,2.472 -0.785,3.37 -1.404,2.931 -2.135,2.281 -2.807,1.686 m 7.075,3.255 0.673,0 C 4.88,5.104 5.072,5.521 4.83,5.502 4.779,5.178 4.345,5.238 4.268,4.941 m -6.177,0 C -1.604,5.122 -0.855,5.939 -1.011,5.84 -1.313,5.659 -2.063,4.842 -1.909,4.941 M -4.604,0.675 c 1.416,1.092 3.079,2.91 4.941,3.929 C 0.104,5.39 1.331,5.817 0.898,6.065 -0.597,3.929 -3.313,3.014 -4.604,0.675 m 6.29,4.379 C 2.198,5.199 2.959,6.22 2.92,6.175 2.47,5.84 1.995,5.53 1.686,5.054 M -4.94,4.941 c 0.533,0.292 1.296,0.946 1.346,1.347 C -3.937,5.734 -4.62,5.52 -4.94,4.941 M 2.809,5.054 C 3.895,5.352 4.261,6.37 5.165,6.851 4.261,6.37 3.525,5.721 2.809,5.054 M 4.604,6.963 C 4.772,7.094 4.878,7.288 5.165,7.299 5.097,7.604 5.309,8.191 5.053,8.31 4.726,7.945 4.675,7.295 4.604,6.963 M -9.545,7.187 c 0.261,0.379 0.866,0.634 1.349,1.01 0.383,0.303 1.069,0.804 0.897,1.011 C -7.923,8.484 -9.657,8.274 -9.545,7.187 m 2.584,1.348 c 0.311,0.324 0.78,0.49 1.123,0.785 -0.69,0.126 -1.141,-0.577 -1.123,-0.785 M -9.545,8.197 c 0.473,0.427 1.101,0.697 1.573,1.123 -0.85,0.025 -1.47,-0.774 -1.573,-1.123 M 4.83,9.096 C 3.579,7.876 1.894,6.492 1.124,5.167 2.361,6.51 3.963,7.491 5.165,8.87 5.39,9.368 4.836,9.651 4.604,9.32 4.741,9.308 4.87,9.286 4.83,9.096 M 3.145,9.433 C 2.422,8.54 0.672,7.496 0.337,6.963 0.628,7.084 0.756,7.369 1.124,7.412 -0.454,5.732 -2.434,3.857 -4.042,2.584 -3.679,3.494 -2.326,4.011 -2.246,4.829 -2.82,3.756 -4.75,3.441 -4.379,1.798 -1.645,4.415 1.343,6.78 4.042,9.433 l -0.897,0 z M -9.545,8.76 c 0.117,0.295 0.447,0.378 0.563,0.673 C -9.388,9.495 -9.837,9.022 -9.545,8.76 M 1.235,9.545 C -0.924,8.15 -2.837,6.505 -4.491,4.604 l 0,-1.347 C -2.3,5.07 0.199,7.548 2.695,9.433 0.17,8.328 -1.456,5.724 -3.705,4.716 -2.104,6.482 -0.122,7.872 1.686,9.433 1.473,9.407 1.437,9.56 1.235,9.545 M -2.694,6.963 c 0.448,0.422 1.023,0.978 1.683,1.459 0.537,0.391 1.787,0.745 1.348,1.459 C -0.392,8.701 -2.278,8.083 -2.694,6.963 M -4.604,6.4 C -5.039,5.981 -5.778,5.574 -5.727,5.054 c 1.469,0.448 2.29,2.04 3.481,3.143 0.772,0.718 1.739,1.215 2.583,1.797 -0.018,0.132 0.019,0.319 -0.111,0.337 C -1.259,9.066 -3.21,7.744 -4.604,6.4 M -6.961,5.727 C -7.169,5.528 -7.763,5.286 -7.524,4.941 l 1.124,0 c -0.015,0.278 -0.017,0.542 0.112,0.674 1.83,2.175 4.671,3.339 6.625,5.389 C 0.313,11.093 0.243,11.135 0.112,11.117 -2.25,9.526 -4.979,7.631 -6.961,5.727 m 0.335,0.786 c 2.08,1.94 4.43,3.406 6.852,4.942 0.004,0.118 -0.053,0.285 -0.114,0.112 -3.316,-1.886 -6.281,-4.125 -8.87,-6.738 1.072,0.016 1.488,1.082 2.132,1.684 m -0.898,0.45 c -0.76,-0.669 -1.516,-1.37 -2.021,-2.134 2.183,1.748 4.775,4.015 7.299,5.728 0.87,0.589 1.952,0.958 2.472,1.796 -2.492,-1.821 -5.53,-3.445 -7.75,-5.39 m 2.584,5.278 c 0.533,0.044 1.671,1.009 1.796,1.458 -0.529,-0.555 -1.826,-0.342 -1.796,-1.458 m 4.378,0.112 c -1.275,-0.447 -2.513,-1.528 -3.705,-1.685 1.293,1.065 2.985,1.732 4.717,2.358 0.09,0.29 0.252,1.088 0,1.349 -0.786,-0.632 -1.769,-1.057 -2.696,-1.574 -0.91,-0.508 -2.015,-0.942 -2.581,-1.797 1.594,0.99 3.558,2.205 5.164,2.808 -1.361,-1.371 -3.459,-2.005 -5.164,-3.032 l 0,-1.235 C -5.601,8.832 -6.612,8.357 -7.524,7.749 -8.339,7.204 -9.583,6.629 -9.657,5.39 c 2.412,2.418 6.344,4.884 9.095,6.963 m -3.817,-0.45 c 1.357,1.04 3.188,1.604 4.491,2.695 -2.19,-0.129 -3.475,-1.764 -4.491,-2.695 m -0.337,1.46 c 0.655,0.506 1.652,0.671 2.359,1.122 -0.337,0.15 -0.861,0.115 -1.348,0.113 0.242,-0.536 -1.238,-1.115 -1.011,-1.235 m -0.224,0.449 c 0.648,0.089 0.36,0.437 0.673,0.786 l -0.673,0 0,-0.786 z m 5.951,1.124 C 1.126,12.925 0.522,11.567 0.898,9.881 l 4.605,0 C 5.698,8.091 5.636,6.052 5.277,4.493 3.605,4.423 2.201,4.772 0.898,4.493 1.011,2.612 1.084,1.271 1.124,-0.223 -0.805,-0.731 -2.771,-0.351 -4.94,-0.336 c -0.187,1.322 0.036,3.072 0.113,4.492 -0.827,0.469 -3.376,0.301 -5.055,0.112 -0.303,1.458 -0.467,4.332 0.113,5.613 1.678,0.039 2.956,-0.152 4.379,-0.112 0.33,1.406 -0.107,1.571 0.113,2.919 0.062,0.232 -0.215,0.27 -0.226,0.113 0.072,0.307 0.262,1.459 0.338,2.135 2.147,-0.099 4.619,0.19 6.176,0"
             id="path102717"
             style="fill:#000000;fill-opacity:1;fill-rule:evenodd;stroke:none" /></g><g
           transform="translate(158.3682,216.5083)"
           id="g102719"><path
             d="M 0,0 C 0.503,-0.084 0.454,0.381 1.044,0.209 1.008,0.521 1.118,0.979 0.835,1.043 0.811,0.442 -0.054,0.682 0,0 M -1.877,0 C -0.372,0.096 0.99,1.44 0.835,2.503 0.37,1.229 -1.556,1.417 -1.877,0 m 0.626,3.128 C -1.538,1.855 -4.127,0.761 -3.546,0 -1.791,1.238 0.309,3.236 0.835,5.005 0.3,4.219 -0.427,3.626 -1.251,3.128 m -3.962,0 C -6.302,2.166 -8.381,0.902 -8.134,0 l 3.129,0 c 0.992,1.105 2.08,2.082 3.128,3.128 C -0.875,4.129 0.651,5.16 0.835,6.883 -1.835,5.45 -3.228,1.63 -5.84,0.834 -4.937,3.061 -2.226,4.589 -1.459,6.257 -2.608,5.444 -3.967,4.234 -5.213,3.128 m 13.14,6.049 1.251,0 C 9.064,9.48 9.421,10.255 8.97,10.221 8.876,9.618 8.069,9.728 7.927,9.177 m -11.473,0 c 0.564,0.336 1.956,1.852 1.669,1.669 C -2.439,10.511 -3.832,8.993 -3.546,9.177 M -8.551,1.252 c 2.628,2.03 5.717,5.405 9.177,7.299 -0.432,1.458 1.848,2.253 1.043,2.711 C -1.108,7.296 -6.152,5.597 -8.551,1.252 M 3.131,9.386 C 4.085,9.655 5.496,11.551 5.424,11.471 4.588,10.846 3.706,10.27 3.131,9.386 M -9.177,9.177 c 0.992,0.541 2.411,1.758 2.503,2.503 -0.638,-1.032 -1.907,-1.429 -2.503,-2.503 M 5.215,9.386 c 2.017,0.556 2.698,2.446 4.38,3.337 C 7.913,11.832 6.548,10.625 5.215,9.386 m 3.338,3.546 c 0.311,0.243 0.508,0.603 1.042,0.624 -0.13,0.568 0.265,1.656 -0.21,1.878 C 8.776,14.756 8.682,13.55 8.553,12.932 m -26.282,0.416 c 0.486,0.706 1.609,1.177 2.504,1.878 0.714,0.561 1.987,1.491 1.668,1.877 -1.16,-1.344 -4.38,-1.737 -4.172,-3.755 m 4.799,2.504 c 0.577,0.603 1.451,0.911 2.085,1.461 -1.283,0.233 -2.119,-1.073 -2.085,-1.461 m -4.799,-0.626 c 0.878,0.794 2.045,1.293 2.921,2.087 -1.578,0.045 -2.731,-1.44 -2.921,-2.087 M 8.97,16.894 C 6.646,14.627 3.519,12.056 2.087,9.595 c 2.299,2.496 5.273,4.32 7.508,6.881 0.417,0.923 -0.614,1.451 -1.042,0.837 0.254,-0.025 0.493,-0.064 0.417,-0.419 M 5.841,17.52 C 4.498,15.862 1.249,13.923 0.626,12.932 c 0.54,0.223 0.776,0.753 1.461,0.835 -2.93,-3.121 -6.608,-6.603 -9.595,-8.969 0.674,1.691 3.187,2.65 3.337,4.17 C -5.24,6.977 -8.822,6.391 -8.134,3.339 -3.053,8.199 2.495,12.594 7.509,17.52 l -1.668,0 z m -23.57,-1.25 c 0.218,0.549 0.829,0.702 1.044,1.25 -0.753,0.115 -1.586,-0.762 -1.044,-1.25 M 2.294,17.728 C -1.717,15.136 -5.269,12.083 -8.343,8.551 l 0,-2.502 c 4.071,3.368 8.715,7.972 13.35,11.471 -4.692,-2.053 -7.713,-6.889 -11.891,-8.76 2.979,3.28 6.657,5.858 10.015,8.76 -0.397,-0.048 -0.462,0.236 -0.837,0.208 m -7.299,-4.796 c 0.834,0.786 1.901,1.818 3.128,2.711 0.997,0.726 3.318,1.384 2.503,2.711 -1.354,-2.192 -4.859,-3.342 -5.631,-5.422 m -3.546,-1.044 c -0.808,-0.777 -2.182,-1.535 -2.086,-2.502 2.728,0.833 4.255,3.787 6.466,5.84 1.434,1.33 3.23,2.254 4.797,3.337 -0.033,0.245 0.036,0.594 -0.207,0.626 -2.758,-2.349 -6.381,-4.805 -8.97,-7.301 m -4.379,-1.25 c -0.385,-0.37 -1.489,-0.82 -1.046,-1.461 l 2.088,0 c -0.028,0.514 -0.031,1.004 0.209,1.252 3.399,4.04 8.676,6.202 12.305,10.01 C 0.581,20.603 0.452,20.683 0.209,20.65 -4.179,17.692 -9.248,14.174 -12.93,10.638 m 0.624,1.459 c 3.864,3.603 8.228,6.324 12.725,9.177 0.009,0.222 -0.1,0.53 -0.21,0.209 -6.16,-3.504 -11.667,-7.659 -16.476,-12.515 1.992,0.03 2.763,2.011 3.961,3.129 m -1.67,0.835 c -1.413,-1.242 -2.816,-2.543 -3.753,-3.964 4.052,3.248 8.869,7.457 13.558,10.638 1.616,1.096 3.625,1.783 4.59,3.338 -4.627,-3.382 -10.271,-6.398 -14.395,-10.012 m 4.799,9.801 c 0.992,0.083 3.106,1.875 3.337,2.713 -0.981,-1.033 -3.392,-0.637 -3.337,-2.713 m 8.134,0.211 c -2.369,-0.828 -4.672,-2.839 -6.882,-3.129 2.402,1.977 5.541,3.217 8.76,4.38 0.168,0.537 0.469,2.019 0,2.503 -1.458,-1.172 -3.286,-1.963 -5.006,-2.921 -1.691,-0.944 -3.744,-1.75 -4.796,-3.338 2.959,1.839 6.612,4.095 9.593,5.216 -2.528,-2.547 -6.425,-3.727 -9.593,-5.633 l 0,-2.294 c -1.435,-1.327 -3.314,-2.206 -5.009,-3.337 -1.512,-1.011 -3.824,-2.08 -3.961,-4.381 4.481,4.49 11.785,9.073 16.894,12.934 m -7.091,-0.835 c 2.52,1.931 5.921,2.978 8.343,5.005 -4.069,-0.239 -6.456,-3.277 -8.343,-5.005 m -0.625,2.711 c 1.215,0.939 3.067,1.244 4.379,2.085 -0.625,0.279 -1.596,0.212 -2.504,0.209 0.451,-0.998 -2.297,-2.072 -1.875,-2.294 m -0.418,0.835 c 1.204,0.165 0.669,0.812 1.252,1.459 l -1.252,0 0,-1.459 z M 1.878,27.742 C 2.09,24.006 0.97,21.484 1.669,18.354 l 8.552,0 C 10.584,15.027 10.467,11.241 9.802,8.344 6.696,8.215 4.089,8.863 1.669,8.344 1.878,4.849 2.014,2.363 2.087,-0.417 -1.495,-1.356 -5.147,-0.652 -9.177,-0.626 c -0.345,2.457 0.069,5.707 0.21,8.342 -1.536,0.873 -6.269,0.561 -9.387,0.211 -0.563,2.708 -0.869,8.047 0.209,10.427 3.119,0.072 5.491,-0.282 8.134,-0.21 0.615,2.613 -0.199,2.92 0.21,5.424 0.113,0.429 -0.401,0.499 -0.419,0.209 0.131,0.569 0.485,2.711 0.625,3.965 3.991,-0.183 8.581,0.354 11.473,0"
             id="path102721"
             style="fill:#000000;fill-opacity:1;fill-rule:evenodd;stroke:none" /></g><g
           transform="translate(135.5977,234.3916)"
           id="g102723"><path
             d="M 0,0 C 0.23,-0.04 0.207,0.176 0.48,0.096 0.464,0.24 0.515,0.452 0.384,0.481 0.373,0.204 -0.026,0.314 0,0 M -0.868,0 C -0.173,0.044 0.455,0.665 0.384,1.156 0.169,0.567 -0.72,0.654 -0.868,0 m 0.289,1.444 C -0.711,0.855 -1.907,0.352 -1.638,0 -0.828,0.57 0.142,1.493 0.384,2.31 0.137,1.948 -0.197,1.674 -0.579,1.444 m -1.829,0 C -2.91,1 -3.871,0.416 -3.755,0 l 1.442,0 c 0.46,0.51 0.96,0.96 1.445,1.444 C -0.405,1.906 0.3,2.382 0.384,3.178 -0.849,2.516 -1.49,0.753 -2.697,0.384 -2.28,1.412 -1.028,2.118 -0.675,2.889 -1.205,2.512 -1.833,1.955 -2.408,1.444 m 6.065,2.791 0.578,0 C 4.183,4.375 4.347,4.732 4.138,4.718 4.096,4.439 3.724,4.49 3.657,4.235 m -5.295,0 c 0.259,0.156 0.903,0.856 0.77,0.771 C -1.128,4.852 -1.77,4.15 -1.638,4.235 m -2.31,-3.658 c 1.213,0.938 2.638,2.496 4.236,3.37 -0.2,0.673 0.853,1.04 0.481,1.252 C -0.513,3.368 -2.842,2.584 -3.948,0.577 M 1.443,4.332 C 1.884,4.457 2.536,5.331 2.503,5.295 2.116,5.006 1.709,4.741 1.443,4.332 M -4.238,4.235 C -3.78,4.486 -3.125,5.047 -3.082,5.392 -3.376,4.916 -3.963,4.732 -4.238,4.235 M 2.406,4.332 C 3.337,4.589 3.651,5.461 4.428,5.873 3.651,5.461 3.021,4.904 2.406,4.332 M 3.945,5.969 C 4.09,6.081 4.182,6.247 4.428,6.257 4.367,6.52 4.551,7.022 4.33,7.125 4.05,6.812 4.006,6.254 3.945,5.969 M -8.184,6.161 c 0.223,0.326 0.742,0.543 1.155,0.867 0.33,0.26 0.917,0.688 0.769,0.866 -0.535,-0.62 -2.021,-0.8 -1.924,-1.733 M -5.97,7.317 C -5.703,7.595 -5.3,7.737 -5.008,7.99 -5.6,8.098 -5.985,7.496 -5.97,7.317 M -8.184,7.028 c 0.406,0.365 0.943,0.597 1.347,0.962 -0.728,0.021 -1.26,-0.663 -1.347,-0.962 M 4.138,7.798 C 3.066,6.751 1.622,5.564 0.962,4.43 2.023,5.581 3.396,6.422 4.428,7.605 4.619,8.031 4.145,8.274 3.945,7.99 4.063,7.98 4.173,7.961 4.138,7.798 M 2.694,8.086 C 2.075,7.321 0.574,6.426 0.288,5.969 0.537,6.073 0.646,6.317 0.962,6.353 -0.391,4.914 -2.088,3.306 -3.467,2.215 c 0.312,0.78 1.471,1.223 1.54,1.924 C -2.421,3.22 -4.073,2.949 -3.755,1.541 -1.411,3.784 1.15,5.813 3.464,8.086 l -0.77,0 z M -8.184,7.509 c 0.099,0.254 0.381,0.324 0.482,0.577 C -8.051,8.14 -8.435,7.734 -8.184,7.509 M 1.057,8.183 C -0.794,6.985 -2.434,5.577 -3.852,3.947 l 0,-1.155 C -1.974,4.347 0.17,6.47 2.31,8.086 0.145,7.139 -1.25,4.907 -3.179,4.043 -1.804,5.558 -0.105,6.748 1.443,8.086 1.261,8.065 1.229,8.195 1.057,8.183 m -3.37,-2.214 c 0.386,0.363 0.879,0.839 1.445,1.252 0.461,0.334 1.532,0.638 1.156,1.25 C -0.337,7.46 -1.956,6.929 -2.313,5.969 M -3.948,5.487 C -4.321,5.129 -4.955,4.778 -4.912,4.332 c 1.26,0.384 1.964,1.749 2.985,2.696 0.662,0.613 1.49,1.04 2.215,1.539 C 0.272,8.681 0.304,8.841 0.192,8.857 -1.081,7.773 -2.754,6.638 -3.948,5.487 M -5.97,4.91 C -6.147,4.739 -6.656,4.532 -6.451,4.235 l 0.963,0 C -5.502,4.474 -5.503,4.7 -5.393,4.814 -3.824,6.678 -1.389,7.675 0.288,9.435 0.267,9.509 0.206,9.547 0.095,9.531 -1.931,8.167 -4.271,6.542 -5.97,4.91 m 0.288,0.673 C -3.897,7.247 -1.884,8.504 0.192,9.819 0.196,9.922 0.146,10.064 0.095,9.916 -2.748,8.298 -5.29,6.381 -7.51,4.139 c 0.92,0.015 1.275,0.928 1.828,1.444 m -0.769,0.386 c -0.653,-0.573 -1.302,-1.175 -1.733,-1.83 1.87,1.501 4.093,3.444 6.257,4.91 0.745,0.507 1.673,0.823 2.119,1.541 C -1.944,9.028 -4.55,7.636 -6.451,5.969 m 2.213,4.524 c 0.458,0.039 1.435,0.865 1.541,1.252 -0.453,-0.476 -1.566,-0.293 -1.541,-1.252 m 3.754,0.097 c -1.092,-0.383 -2.155,-1.311 -3.175,-1.444 1.108,0.913 2.558,1.485 4.043,2.022 0.078,0.247 0.217,0.932 0,1.155 -0.674,-0.541 -1.517,-0.906 -2.311,-1.348 -0.78,-0.436 -1.727,-0.808 -2.214,-1.54 1.367,0.848 3.052,1.889 4.429,2.406 -1.168,-1.175 -2.966,-1.72 -4.429,-2.599 l 0,-1.059 c -0.663,-0.612 -1.53,-1.018 -2.31,-1.541 -0.7,-0.467 -1.767,-0.959 -1.83,-2.022 2.068,2.072 5.439,4.189 7.797,5.97 m -3.271,-0.386 c 1.161,0.892 2.732,1.376 3.85,2.312 -1.879,-0.111 -2.98,-1.513 -3.85,-2.312 m -0.29,1.252 c 0.562,0.434 1.416,0.574 2.022,0.964 -0.29,0.127 -0.737,0.098 -1.156,0.096 0.207,-0.461 -1.061,-0.957 -0.866,-1.06 m -0.193,0.385 c 0.556,0.076 0.309,0.375 0.579,0.675 l -0.579,0 0,-0.675 z m 5.104,0.963 C 0.963,11.081 0.446,9.917 0.769,8.471 l 3.948,0 C 4.883,6.937 4.829,5.188 4.523,3.851 3.09,3.792 1.885,4.09 0.769,3.851 0.866,2.238 0.929,1.09 0.962,-0.192 c -1.653,-0.434 -3.339,-0.11 -5.2,-0.097 -0.16,1.133 0.032,2.634 0.097,3.851 -0.709,0.402 -2.893,0.259 -4.332,0.096 -0.259,1.251 -0.401,3.714 0.096,4.813 1.439,0.034 2.535,-0.129 3.754,-0.096 0.284,1.206 -0.091,1.348 0.097,2.504 0.052,0.197 -0.185,0.23 -0.194,0.096 0.063,0.262 0.224,1.251 0.29,1.829 1.842,-0.083 3.96,0.165 5.296,0"
             id="path102725"
             style="fill:#000000;fill-opacity:1;fill-rule:evenodd;stroke:none" /></g><g
           transform="translate(180.2334,317.0371)"
           id="g102727"><path
             d="m 0,0 c -27.702,1.989 -55.471,0.482 -83.204,1.071 -14.029,0.297 -28.056,0.557 -42.078,1.019 -13.267,0.435 -27.887,2.511 -40.737,-1.661 -0.794,-0.258 -0.4,-1.492 0.394,-1.234 12.697,4.121 27.288,2.038 40.409,1.602 14.024,-0.466 28.051,-0.689 42.079,-1.021 C -55.4,-0.877 -27.639,0.694 0.068,-1.292 0.9,-1.353 0.823,-0.06 0,0"
             id="path102729"
             style="fill:#000000;fill-opacity:1;fill-rule:nonzero;stroke:none" /></g><g
           transform="translate(144.6934,317.2935)"
           id="g102731"><path
             d="m 0,0 c 9.776,0 22.663,-0.119 35.645,-1.05 l 0.019,-0.501 0,0.5 c 0.023,0 0.032,0.004 0.032,0.004 0,0.008 0.014,0.091 -0.028,0.178 -0.051,0.106 -0.133,0.112 -0.164,0.114 -13.211,0.948 -26.377,1.07 -36.371,1.07 -5.202,0 -10.404,-0.037 -15.608,-0.074 -5.204,-0.036 -10.407,-0.074 -15.611,-0.074 -5.826,0 -10.926,0.049 -15.589,0.147 l -6.409,0.135 c -11.693,0.242 -23.784,0.493 -35.675,0.885 -2.695,0.088 -5.505,0.248 -8.221,0.402 -4.322,0.245 -8.791,0.498 -13.187,0.498 -7.738,0 -13.825,-0.806 -19.157,-2.537 -0.044,-0.014 -0.104,-0.034 -0.086,-0.146 0.01,-0.059 0.052,-0.148 0.113,-0.148 5.395,1.743 11.483,2.55 19.215,2.55 4.428,0 8.912,-0.258 13.248,-0.507 2.83,-0.163 5.504,-0.317 8.175,-0.406 9.692,-0.322 19.55,-0.531 29.084,-0.734 4.33,-0.092 8.66,-0.184 12.99,-0.286 4.96,-0.117 10.183,-0.171 16.437,-0.171 5.19,0 10.38,0.037 15.572,0.075 C -10.384,-0.038 -5.191,0 0,0 m 35.664,-2.051 0,0 -0.092,0.004 C 22.623,-1.119 9.76,-1 0,-1 c -5.188,0 -10.379,-0.038 -15.569,-0.076 -5.194,-0.038 -10.387,-0.075 -15.579,-0.075 -6.262,0 -11.493,0.054 -16.46,0.171 -4.33,0.103 -8.66,0.194 -12.989,0.287 -9.537,0.202 -19.397,0.412 -29.095,0.734 -2.684,0.089 -5.488,0.251 -8.2,0.406 -4.322,0.249 -8.791,0.506 -13.19,0.506 -7.625,0 -13.614,-0.791 -18.849,-2.49 -0.672,-0.22 -1.355,0.23 -1.466,0.933 -0.091,0.571 0.216,1.075 0.764,1.252 5.435,1.765 11.62,2.586 19.466,2.586 4.425,0 8.908,-0.254 13.243,-0.5 2.711,-0.153 5.515,-0.313 8.198,-0.401 11.884,-0.391 23.972,-0.642 35.663,-0.885 l 6.41,-0.134 c 4.656,-0.099 9.748,-0.147 15.567,-0.147 5.201,0 10.403,0.038 15.605,0.074 5.205,0.037 10.41,0.074 15.614,0.074 10.011,0 23.2,-0.122 36.443,-1.073 0.728,-0.053 1.141,-0.691 1.119,-1.278 -0.021,-0.588 -0.455,-1.015 -1.031,-1.015"
             id="path102733"
             style="fill:#000000;fill-opacity:1;fill-rule:nonzero;stroke:none" /></g><g
           transform="translate(57.3242,316.2524)"
           id="g102735"><path
             d="m 0,0 c 0,-3.112 -2.522,-5.635 -5.635,-5.635 l -46.054,0 c -3.114,0 -5.635,2.523 -5.635,5.635 l 0,18.196 c 0,3.112 2.521,5.634 5.635,5.634 l 46.054,0 C -2.522,23.83 0,21.308 0,18.196 L 0,0 z"
             id="path102737"
             style="fill:#ffffff;fill-opacity:1;fill-rule:nonzero;stroke:none" /></g><g
           transform="translate(21.9668,319.5259)"
           id="g102739"><path
             d="m 0,0 0,6.869 c 0,0.699 0.466,1.206 1.104,1.206 l 1.035,0 C 2.777,8.075 3.24,7.568 3.24,6.869 L 3.24,0 c 0,-0.7 -0.463,-1.205 -1.101,-1.205 l -1.035,0 C 0.466,-1.205 0,-0.7 0,0"
             id="path102741"
             style="fill:#000000;fill-opacity:1;fill-rule:nonzero;stroke:none" /></g><g
           transform="translate(25.4365,330.627)"
           id="g102743"><path
             d="m 0,0 c 0,-1.009 -0.817,-1.826 -1.826,-1.826 -1.008,0 -1.825,0.817 -1.825,1.826 0,1.007 0.817,1.826 1.825,1.826 C -0.817,1.826 0,1.007 0,0"
             id="path102745"
             style="fill:#000000;fill-opacity:1;fill-rule:nonzero;stroke:none" /></g><g
           transform="translate(40.8105,322.9673)"
           id="g102747"><path
             d="m 0,0 c 0,-1.038 0.846,-1.885 1.885,-1.885 1.041,0 1.886,0.847 1.886,1.885 0,1.042 -0.845,1.888 -1.886,1.888 C 0.846,1.888 0,1.042 0,0 m -2.93,0 c 0,2.605 2.16,4.722 4.815,4.722 2.656,0 4.817,-2.117 4.817,-4.722 0,-2.602 -2.161,-4.72 -4.817,-4.72 -2.655,0 -4.815,2.118 -4.815,4.72"
             id="path102749"
             style="fill:#000000;fill-opacity:1;fill-rule:nonzero;stroke:none" /></g><g
           transform="translate(31.9814,318.5005)"
           id="g102751"><path
             d="m 0,0 c -0.595,0 -1.183,0.109 -1.47,0.636 -0.288,0.525 -3.534,6.215 -3.788,6.665 -0.232,0.41 -0.148,1.121 0.421,1.403 0.349,0.171 0.52,0.263 0.826,0.414 0.536,0.269 1.208,0.212 1.632,-0.523 0.253,-0.44 2.366,-4.662 2.366,-4.662 l 0.02,0 c 0,0 2.115,4.222 2.369,4.662 C 2.797,9.33 3.472,9.387 4.008,9.118 4.314,8.967 4.485,8.875 4.833,8.704 5.403,8.422 5.489,7.709 5.255,7.301 4.943,6.753 1.771,1.157 1.467,0.636 1.162,0.117 0.591,0 0,0"
             id="path102753"
             style="fill:#000000;fill-opacity:1;fill-rule:nonzero;stroke:none" /></g><g
           transform="translate(15.1895,318.5005)"
           id="g102755"><path
             d="m 0,0 c -0.594,0 -1.181,0.109 -1.469,0.636 -0.288,0.525 -3.534,6.215 -3.789,6.665 -0.23,0.41 -0.148,1.121 0.423,1.403 0.347,0.171 0.52,0.263 0.824,0.416 0.536,0.267 1.211,0.21 1.633,-0.525 0.254,-0.44 2.364,-4.662 2.364,-4.662 l 0.024,0 c 0,0 2.114,4.222 2.366,4.662 C 2.797,9.33 3.471,9.387 4.008,9.12 4.313,8.967 4.486,8.875 4.832,8.704 5.404,8.422 5.49,7.709 5.256,7.301 4.943,6.753 1.772,1.157 1.467,0.636 1.162,0.117 0.593,0 0,0"
             id="path102757"
             style="fill:#000000;fill-opacity:1;fill-rule:nonzero;stroke:none" /></g><g
           transform="translate(175.4863,63.0049)"
           id="g102759"><path
             d="m 0,0 c 0,0 -3.099,-0.745 -4.143,-1.408 -1.044,-0.666 1.802,-4.935 2.325,-5.077 0.522,-0.142 4.079,1.234 4.128,1.708 0.045,0.475 -1.663,1.756 -1.663,1.756 0,0 -0.251,2.673 -0.647,3.021"
             id="path102761"
             style="fill:#ffffff;fill-opacity:1;fill-rule:nonzero;stroke:none" /></g><g
           transform="translate(171.6855,61.1377)"
           id="g102763"><path
             d="m 0,0 c -0.182,-0.657 1.511,-3.494 2.156,-4.054 0.628,0.066 2.604,0.838 3.274,1.26 -0.242,0.29 -0.779,0.775 -1.323,1.184 L 3.906,-1.458 3.883,-1.207 C 3.8,-0.338 3.642,0.692 3.495,1.202 2.48,0.94 0.706,0.427 0,0 m 2.08,-5.196 0,0 c -0.092,0 -0.173,0.009 -0.247,0.03 -0.803,0.218 -2.729,3.332 -2.945,4.76 -0.119,0.79 0.186,1.168 0.465,1.345 1.093,0.695 3.989,1.402 4.316,1.481 L 3.955,2.489 4.177,2.295 C 4.536,1.979 4.81,0.922 4.991,-0.853 6.751,-2.213 6.696,-2.758 6.676,-2.967 6.573,-3.986 2.698,-5.196 2.08,-5.196"
             id="path102765"
             style="fill:#000000;fill-opacity:1;fill-rule:nonzero;stroke:none" /></g><g
           transform="translate(175.0098,58.0283)"
           id="g102767"><path
             d="m 0,0 -0.597,0.97 c 0.381,0.234 0.978,0.936 1.264,1.323 L 1.582,1.616 C 1.493,1.495 0.69,0.426 0,0"
             id="path102769"
             style="fill:#000000;fill-opacity:1;fill-rule:nonzero;stroke:none" /></g><g
           transform="translate(146.8633,83.1035)"
           id="g102771"><path
             d="m 0,0 c 0,0 1.332,-22.741 2.187,-34.789 0,0 14.039,1.708 25.803,6.735 0,0 -7.689,22.148 -11.054,31.328 L 0,0 z"
             id="path102773"
             style="fill:#ffffff;fill-opacity:1;fill-rule:nonzero;stroke:none" /></g><g
           transform="translate(147.46,82.6396)"
           id="g102775"><path
             d="m 0,0 c 0.196,-3.342 1.34,-22.643 2.115,-33.681 2.744,0.384 14.478,2.199 24.566,6.409 -1.145,3.291 -7.596,21.832 -10.71,30.359 L 0,0 z m 1.064,-34.963 -0.043,0.598 C 0.178,-22.45 -1.151,0.203 -1.165,0.43 L -1.194,0.928 16.707,4.39 16.874,3.935 c 3.327,-9.081 10.981,-31.117 11.058,-31.338 l 0.174,-0.501 -0.49,-0.209 C 15.914,-33.115 1.801,-34.874 1.657,-34.891 l -0.593,-0.072 z"
             id="path102777"
             style="fill:#000000;fill-opacity:1;fill-rule:nonzero;stroke:none" /></g><g
           transform="translate(161.875,85.3232)"
           id="g102779"><path
             d="m 0,0 c 0,0 2.448,-12.106 2.163,-12.248 -0.284,-0.144 -8.205,8.965 -8.205,8.965 0,0 -3.369,-11.242 -3.747,-11.196 -0.38,0.048 -3.652,11.949 -3.652,11.949 L 0,0 z"
             id="path102781"
             style="fill:#ffffff;fill-opacity:1;fill-rule:nonzero;stroke:none" /></g><g
           transform="translate(149.1465,82.3486)"
           id="g102783"><path
             d="m 0,0 c 1.098,-3.974 2.317,-8.174 2.964,-10.102 0.701,1.918 2.028,6.122 3.177,9.956 L 6.438,0.845 7.116,0.064 c 2.161,-2.483 5.434,-6.184 7.072,-7.91 -0.358,2.265 -1.244,6.857 -1.906,10.157 L 0,0 z m 2.941,-12.072 -0.073,0.005 c -0.472,0.057 -0.757,0.094 -4.131,12.36 L -1.427,0.89 13.175,3.638 13.287,3.087 c 2.534,-12.532 2.352,-12.624 1.86,-12.87 l -0.121,-0.061 -0.141,-0.001 c -0.316,0 -0.64,0 -7.949,8.385 C 3.738,-12.072 3.451,-12.072 2.941,-12.072"
             id="path102785"
             style="fill:#000000;fill-opacity:1;fill-rule:nonzero;stroke:none" /></g><g
           transform="translate(168.8818,100.5371)"
           id="g102787"><path
             d="M 0,0 C 0,0 2.328,1.479 3.87,-0.079 5.412,-1.638 5.169,-5.763 0.996,-5.524 L 0,0 z"
             id="path102789"
             style="fill:#ffffff;fill-opacity:1;fill-rule:nonzero;stroke:none" /></g><g
           transform="translate(169.5156,100.2295)"
           id="g102791"><path
             d="m 0,0 0.84,-4.656 c 1.243,0.034 2.102,0.542 2.491,1.474 0.411,0.989 0.193,2.31 -0.5,3.009 C 2.468,0.194 2.028,0.373 1.486,0.373 0.9,0.373 0.34,0.16 0,0 m 0.704,-5.796 c -0.122,0 -0.246,0.003 -0.375,0.011 l -0.448,0.026 -1.144,6.342 0.325,0.205 c 0.044,0.029 1.152,0.723 2.424,0.723 0.85,0 1.575,-0.296 2.155,-0.883 1.007,-1.019 1.325,-2.844 0.741,-4.249 -0.34,-0.812 -1.268,-2.175 -3.678,-2.175"
             id="path102793"
             style="fill:#000000;fill-opacity:1;fill-rule:nonzero;stroke:none" /></g><g
           transform="translate(135.9082,93.3359)"
           id="g102795"><path
             d="m 0,0 c 0,0 -2.437,0.513 -3.841,-1.157 -1.402,-1.67 0.505,-6.767 5.375,-4.026 L 0,0 z"
             id="path102797"
             style="fill:#ffffff;fill-opacity:1;fill-rule:nonzero;stroke:none" /></g><g
           transform="translate(135.041,92.8408)"
           id="g102799"><path
             d="m 0,0 c -0.763,0 -1.822,-0.178 -2.536,-1.028 -0.41,-0.489 -0.421,-1.497 -0.025,-2.35 0.216,-0.461 0.874,-1.534 2.343,-1.534 0.591,0 1.242,0.171 1.941,0.511 L 0.426,-0.019 C 0.308,-0.008 0.163,0 0,0 m -0.218,-6.051 0,0 c -1.473,0 -2.734,0.82 -3.375,2.193 -0.59,1.266 -0.513,2.73 0.185,3.562 0.996,1.186 2.402,1.435 3.408,1.435 0.567,0 0.968,-0.082 0.984,-0.086 L 1.316,0.982 3.075,-4.962 2.679,-5.184 C 1.657,-5.76 0.682,-6.051 -0.218,-6.051"
             id="path102801"
             style="fill:#000000;fill-opacity:1;fill-rule:nonzero;stroke:none" /></g><g
           transform="translate(151.7188,161.4004)"
           id="g102803"><path
             d="m 0,0 c 0,0 -15.027,-7.291 -21.671,-17.213 -6.644,-9.923 -6.216,-16.302 -5.578,-20.294 0.635,-3.991 11.804,-34.848 12.779,-36.664 0.976,-1.814 9.754,-6.098 19.429,-3.751 9.676,2.346 13.765,8.625 13.602,11.314 -0.164,2.686 -5.691,37.841 -6.242,39.925 -0.552,2.086 -7.715,7.096 -13.181,7.663 0,0 2.268,6.431 5.492,10.143 0,0 -10.285,-2.974 -14.181,-6.754 0,0 4.164,11.021 9.551,15.631"
             id="path102805"
             style="fill:#ffffff;fill-opacity:1;fill-rule:nonzero;stroke:none" /></g><g
           transform="translate(148.877,159.2275)"
           id="g102807"><path
             d="m 0,0 c -4.729,-2.687 -13.698,-8.398 -18.355,-15.356 -6.164,-9.204 -6.236,-15.219 -5.492,-19.889 0.605,-3.791 11.732,-34.642 12.72,-36.483 0.646,-1.201 6.043,-4.138 13.121,-4.138 1.933,0 3.84,0.225 5.673,0.67 9.699,2.351 13.3,8.541 13.167,10.725 -0.155,2.571 -5.622,37.549 -6.224,39.817 -0.48,1.816 -7.406,6.694 -12.69,7.24 l -0.719,0.075 0.241,0.681 c 0.082,0.234 1.828,5.132 4.459,8.86 -3.071,-1.017 -9.414,-3.35 -12.214,-6.068 l -1.83,-1.777 0.903,2.387 C -7.097,-12.873 -4.164,-5.195 0,0 m 1.994,-77.004 c -7.491,0 -13.26,3.129 -14.123,4.736 -1.054,1.96 -12.194,32.783 -12.842,36.844 -0.732,4.603 -0.751,11.114 5.669,20.7 6.653,9.937 21.277,17.108 21.896,17.409 L 6.569,4.613 3.212,1.739 c -3.832,-3.28 -7.083,-10.005 -8.552,-13.376 4.579,3.122 12.283,5.372 12.654,5.48 L 9.166,-5.623 7.902,-7.078 C 5.381,-9.98 3.429,-14.663 2.763,-16.38 c 5.476,-0.911 12.343,-5.701 12.949,-7.983 0.603,-2.281 6.101,-37.454 6.259,-40.038 0.171,-2.829 -3.884,-9.441 -14.036,-11.901 -1.918,-0.466 -3.917,-0.702 -5.941,-0.702"
             id="path102809"
             style="fill:#000000;fill-opacity:1;fill-rule:nonzero;stroke:none" /></g><g
           transform="translate(134.1846,104.0791)"
           id="g102811"><path
             d="M 0,0 C 0,0 -0.146,3.275 2.245,4.141 4.637,5.005 6.551,2.15 6.551,2.15"
             id="path102813"
             style="fill:#ffffff;fill-opacity:1;fill-rule:nonzero;stroke:none" /></g><g
           transform="translate(133.6172,104.0527)"
           id="g102815"><path
             d="M 0,0 C -0.008,0.152 -0.134,3.706 2.62,4.702 5.396,5.707 7.503,2.625 7.591,2.494 L 6.646,1.86 C 6.63,1.885 4.946,4.332 3.007,3.631 1.042,2.921 1.135,0.079 1.136,0.051 L 0,0 z"
             id="path102817"
             style="fill:#000000;fill-opacity:1;fill-rule:nonzero;stroke:none" /></g><g
           transform="translate(158.8105,110.375)"
           id="g102819"><path
             d="M 0,0 C 0,0 0.56,2.918 2.94,3.401 5.323,3.885 6.771,0.922 6.771,0.922"
             id="path102821"
             style="fill:#ffffff;fill-opacity:1;fill-rule:nonzero;stroke:none" /></g><g
           transform="translate(159.3701,110.2666)"
           id="g102823"><path
             d="M 0,0 -1.119,0.216 C -1.093,0.35 -0.456,3.515 2.268,4.067 5.054,4.626 6.657,1.417 6.724,1.28 L 5.701,0.778 C 5.689,0.804 4.423,3.341 2.493,2.952 0.521,2.552 0.005,0.025 0,0"
             id="path102825"
             style="fill:#000000;fill-opacity:1;fill-rule:nonzero;stroke:none" /></g><g
           transform="translate(139.7979,96.7578)"
           id="g102827"><path
             d="m 0,0 c 0.271,-0.963 0.053,-1.869 -0.486,-2.02 -0.539,-0.151 -1.197,0.508 -1.467,1.473 -0.271,0.965 -0.054,1.87 0.487,2.02 C -0.928,1.625 -0.271,0.965 0,0"
             id="path102829"
             style="fill:#000000;fill-opacity:1;fill-rule:nonzero;stroke:none" /></g><g
           transform="translate(165.2852,102.2373)"
           id="g102831"><path
             d="M 0,0 C 0.132,-0.993 -0.208,-1.858 -0.765,-1.933 -1.32,-2.008 -1.878,-1.262 -2.01,-0.269 -2.144,0.725 -1.802,1.59 -1.246,1.664 -0.69,1.738 -0.134,0.993 0,0"
             id="path102833"
             style="fill:#000000;fill-opacity:1;fill-rule:nonzero;stroke:none" /></g><g
           transform="translate(145.9189,89.0605)"
           id="g102835"><path
             d="m 0,0 c 0,0 4.339,-3.19 9.604,-1.703 5.267,1.489 5.693,5.71 5.693,5.71"
             id="path102837"
             style="fill:#ffffff;fill-opacity:1;fill-rule:nonzero;stroke:none" /></g><g
           transform="translate(152.6387,86.3887)"
           id="g102839"><path
             d="m 0,0 c -3.992,0 -6.907,2.103 -7.057,2.214 l 0.673,0.917 c 0.042,-0.03 4.192,-3.005 9.115,-1.614 4.836,1.367 5.276,5.18 5.28,5.219 L 9.145,6.621 C 9.126,6.434 8.614,1.997 3.041,0.423 1.981,0.123 0.96,0 0,0"
             id="path102841"
             style="fill:#000000;fill-opacity:1;fill-rule:nonzero;stroke:none" /></g><g
           transform="translate(175.5137,62.2588)"
           id="g102843"><path
             d="m 0,0 -0.751,0.855 c 3.806,3.34 7.312,10.472 7.956,11.937 -0.407,0.354 -1.762,1.4 -6.281,4.38 -4.236,2.793 -12.283,6.728 -12.363,6.768 l 0.499,1.025 c 0.081,-0.04 8.194,-4.009 12.492,-6.843 C 8.427,13.589 8.427,13.301 8.427,12.903 8.427,12.332 4.313,3.785 0,0"
             id="path102845"
             style="fill:#000000;fill-opacity:1;fill-rule:nonzero;stroke:none" /></g><g
           transform="translate(123.1357,75.0889)"
           id="g102847"><path
             d="m 0,0 c -1.759,0 -3.618,0.075 -5.583,0.24 l 0.096,1.136 c 19.733,-1.663 28.794,6.181 28.883,6.261 l 0.757,-0.85 C 23.811,6.481 16.328,0 0,0"
             id="path102849"
             style="fill:#000000;fill-opacity:1;fill-rule:nonzero;stroke:none" /></g><g
           transform="translate(117.9209,75.8711)"
           id="g102851"><path
             d="M 0,0 C 0.533,0.63 1.139,4.117 1.209,6.679 1.28,9.24 -2.1,12.051 -3.344,11.019 -4.59,9.987 -2.988,2.445 -2.988,2.445 c 0,0 -3.202,-0.534 -2.598,-1.281 C -4.98,0.417 -2.135,-0.211 0,0"
             id="path102853"
             style="fill:#ffffff;fill-opacity:1;fill-rule:nonzero;stroke:none" /></g><g
           transform="translate(113.0195,77.207)"
           id="g102855"><path
             d="m 0,0 c 0.651,-0.376 2.308,-0.808 4.018,-0.808 l 0.001,0 c 0.189,0 0.373,0.005 0.549,0.016 C 4.929,0.009 5.472,2.827 5.542,5.359 5.567,6.245 5.068,7.3 4.21,8.183 3.542,8.87 2.742,9.333 2.219,9.333 2.089,9.333 1.991,9.305 1.92,9.245 1.397,8.812 1.654,5.065 2.47,1.228 L 2.593,0.646 2.007,0.548 C 1.217,0.417 0.408,0.189 0,0 m 4.019,-1.946 -0.001,0 c -1.964,0 -4.427,0.53 -5.145,1.417 -0.202,0.249 -0.257,0.553 -0.149,0.838 0.241,0.633 1.401,1.023 2.514,1.254 -0.522,2.6 -1.307,7.512 -0.045,8.557 0.277,0.23 0.63,0.352 1.026,0.352 0.846,0 1.897,-0.56 2.808,-1.496 C 6.11,7.862 6.713,6.532 6.681,5.327 6.615,3.033 6.061,-0.846 5.337,-1.703 L 5.187,-1.88 4.956,-1.902 C 4.661,-1.932 4.347,-1.946 4.019,-1.946"
             id="path102857"
             style="fill:#000000;fill-opacity:1;fill-rule:nonzero;stroke:none" /></g><g
           transform="translate(172.7588,22.8896)"
           id="g102859"><path
             d="m 0,0 -1.122,0.188 c 1.588,9.44 2.638,31.774 2.648,31.998 L 2.664,32.134 C 2.653,31.907 1.6,9.505 0,0"
             id="path102861"
             style="fill:#000000;fill-opacity:1;fill-rule:nonzero;stroke:none" /></g><g
           transform="translate(172.2832,23.5068)"
           id="g102863"><path
             d="M 0,0 C 0,0 0.982,-4.318 0.556,-4.745 0.128,-5.172 -4.401,-7.829 -6.868,-7.021 -9.335,-6.215 -0.815,-1.183 0,0"
             id="path102865"
             style="fill:#ffffff;fill-opacity:1;fill-rule:nonzero;stroke:none" /></g><g
           transform="translate(165.5498,17.042)"
           id="g102867"><path
             d="m 0,0 c 0.011,-0.005 0.025,-0.011 0.042,-0.016 0.25,-0.082 0.547,-0.124 0.88,-0.124 2.177,0 5.295,1.744 5.898,2.207 C 6.884,2.497 6.674,3.928 6.389,5.355 5.938,4.989 5.322,4.532 4.527,3.948 3.11,2.906 0.211,0.771 0,0 m 0.922,-1.278 c -0.453,0 -0.869,0.061 -1.234,0.18 -0.631,0.205 -0.789,0.629 -0.827,0.864 -0.189,1.192 1.759,2.72 4.992,5.099 1.034,0.76 2.205,1.622 2.413,1.924 L 7.001,7.856 7.289,6.593 C 8.34,1.967 7.885,1.512 7.691,1.317 7.269,0.896 3.645,-1.278 0.922,-1.278"
             id="path102869"
             style="fill:#000000;fill-opacity:1;fill-rule:nonzero;stroke:none" /></g><g
           transform="translate(177.9971,25.6211)"
           id="g102871"><path
             d="m 0,0 c -8.388,2.76 -22.545,7.471 -23.117,7.995 -0.577,0.53 -4.23,9.301 -6.357,14.482 l 1.053,0.432 c 2.056,-5.011 5.473,-13.133 6.073,-14.061 1.229,-0.62 14.16,-4.954 22.703,-7.766 L 0,0 z"
             id="path102873"
             style="fill:#000000;fill-opacity:1;fill-rule:nonzero;stroke:none" /></g><g
           transform="translate(177.9609,26.2324)"
           id="g102875"><path
             d="m 0,0 c 0.379,0.141 2.017,-6.853 1.685,-7.375 -0.332,-0.522 -4.412,-1.756 -5.598,-1.234 -1.186,0.522 1.613,2.751 1.613,2.751 0,0 1.469,5.549 2.3,5.858"
             id="path102877"
             style="fill:#ffffff;fill-opacity:1;fill-rule:nonzero;stroke:none" /></g><g
           transform="translate(174.3447,18.1221)"
           id="g102879"><path
             d="m 0,0 c 0.094,-0.027 0.254,-0.056 0.519,-0.056 1.433,0 3.73,0.752 4.26,1.085 C 4.794,1.866 4.016,5.457 3.515,7.032 3.036,6.027 2.354,3.948 1.866,2.107 L 1.817,1.925 1.671,1.808 C 0.873,1.171 0.132,0.361 0,0 m 0.519,-1.194 c -0.436,0 -0.778,0.057 -1.045,0.174 -0.357,0.158 -0.578,0.438 -0.623,0.794 -0.124,0.949 1.23,2.202 1.962,2.804 1.005,3.756 1.882,5.796 2.605,6.066 L 3.514,8.68 3.629,8.682 C 3.884,8.682 4.093,8.537 4.251,8.251 4.621,7.575 6.333,1.298 5.781,0.43 5.297,-0.335 1.99,-1.194 0.519,-1.194"
             id="path102881"
             style="fill:#000000;fill-opacity:1;fill-rule:nonzero;stroke:none" /></g></g></g></g></svg>