<?xml version="1.0" encoding="UTF-8" standalone="no"?>
<!-- Created with Inkscape (http://www.inkscape.org/) -->

<svg
   xmlns:dc="http://purl.org/dc/elements/1.1/"
   xmlns:cc="http://creativecommons.org/ns#"
   xmlns:rdf="http://www.w3.org/1999/02/22-rdf-syntax-ns#"
   xmlns:svg="http://www.w3.org/2000/svg"
   xmlns="http://www.w3.org/2000/svg"
   version="1.1"
   width="248.0325"
   height="425.19626"
   id="svg105230"
   xml:space="preserve"><metadata
     id="metadata105236"><rdf:RDF><cc:Work
         rdf:about=""><dc:format>image/svg+xml</dc:format><dc:type
           rdf:resource="http://purl.org/dc/dcmitype/StillImage" /><dc:title></dc:title></cc:Work></rdf:RDF></metadata><defs
     id="defs105234"><clipPath
       id="clipPath105246"><path
         d="m 0,2.484 198.426,0 0,337.673 L 0,340.157 0,2.484 z"
         id="path105248" /></clipPath></defs><g
     transform="matrix(1.25,0,0,-1.25,0,425.19625)"
     id="g105238"><path
       d="m 0.072,2.484 198.354,0 0,336.929 -198.354,0 0,-336.929 z"
       id="path105240"
       style="fill:#ffffff;fill-opacity:1;fill-rule:nonzero;stroke:none" /><g
       id="g105242"><g
         clip-path="url(#clipPath105246)"
         id="g105244"><g
           transform="translate(101.8398,239.7886)"
           id="g105250"><path
             d="m 0,0 0,4.003 c 31.407,12.873 62.406,28.777 92.777,42.05 11.018,4.818 21.053,10.13 31.369,12.683 -2.265,-5.122 -8.825,-7.192 -13.349,-9.345 C 74.014,31.879 36.564,16.898 0,0"
             id="path105252"
             style="fill:#000000;fill-opacity:1;fill-rule:evenodd;stroke:none" /></g><g
           transform="translate(101.8398,205.0801)"
           id="g105254"><path
             d="m 0,0 0,4.673 c 23.628,11.572 48.989,18.866 72.753,29.367 23.78,10.511 46.365,23.246 70.749,32.039 -3.609,-5.773 -10.858,-6.865 -16.688,-9.345 -5.903,-2.512 -11.563,-5.921 -17.351,-8.677 C 73.446,30.912 35.252,17.027 0,0"
             id="path105256"
             style="fill:#000000;fill-opacity:1;fill-rule:evenodd;stroke:none" /></g><g
           transform="translate(101.8398,163.0293)"
           id="g105258"><path
             d="m 0,0 0,4.006 c 27.213,12.41 55.046,24.04 82.764,36.043 13.74,5.947 27.748,11.487 41.382,17.354 13.75,5.915 26.674,14.065 41.384,16.687 C 160.739,68.526 153.408,66.409 146.84,63.411 98.674,41.414 47.979,21.621 0,0"
             id="path105260"
             style="fill:#000000;fill-opacity:1;fill-rule:evenodd;stroke:none" /></g><g
           transform="translate(101.8398,121.6484)"
           id="g105262"><path
             d="m 0,0 0,3.338 c 47.574,18.548 94.562,41.228 141.499,60.071 8.162,3.276 16.674,5.084 24.696,8.674 7.627,3.415 14.807,8.562 23.362,9.347 C 183.571,75.071 174.424,73.971 166.863,70.75 111.661,47.228 55.48,22.851 0,0"
             id="path105264"
             style="fill:#000000;fill-opacity:1;fill-rule:evenodd;stroke:none" /></g><g
           transform="translate(101.8398,85.6045)"
           id="g105266"><path
             d="m 0,0 0,4.006 c 29.413,12.648 59.385,23.998 89.439,36.043 22.363,8.963 44.391,19.818 66.077,28.034 7.852,2.973 15.926,4.598 24.028,7.341 11.276,3.817 21.464,10.179 33.373,12.015 C 205.784,81.162 196.249,78.428 187.556,75.424 158.686,65.456 133.461,54.372 106.794,43.388 71.373,28.795 35.641,14.329 0,0"
             id="path105268"
             style="fill:#000000;fill-opacity:1;fill-rule:evenodd;stroke:none" /></g><g
           transform="translate(101.8398,39.5518)"
           id="g105270"><path
             d="m 0,0 0,4.004 c 73.736,28.311 151.06,59.499 228.269,84.1 4.644,1.48 9.496,5.042 14.685,4.005 -7.781,-7.917 -19.481,-8.558 -29.37,-12.015 C 141.499,54.896 68.137,27.227 0,0"
             id="path105272"
             style="fill:#000000;fill-opacity:1;fill-rule:evenodd;stroke:none" /></g><g
           transform="translate(57.5361,316.6738)"
           id="g105274"><path
             d="m 0,0 c 0,-3.123 -2.532,-5.655 -5.655,-5.655 l -46.226,0 c -3.124,0 -5.655,2.532 -5.655,5.655 l 0,18.264 c 0,3.124 2.531,5.655 5.655,5.655 l 46.226,0 C -2.532,23.919 0,21.388 0,18.264 L 0,0 z"
             id="path105276"
             style="fill:#ffffff;fill-opacity:1;fill-rule:nonzero;stroke:none" /></g><g
           transform="translate(22.0479,319.9604)"
           id="g105278"><path
             d="m 0,0 0,6.894 c 0,0.702 0.468,1.21 1.108,1.21 l 1.038,0 c 0.642,0 1.106,-0.508 1.106,-1.21 L 3.252,0 c 0,-0.702 -0.464,-1.209 -1.106,-1.209 l -1.038,0 C 0.468,-1.209 0,-0.702 0,0"
             id="path105280"
             style="fill:#000000;fill-opacity:1;fill-rule:nonzero;stroke:none" /></g><g
           transform="translate(25.5303,331.1021)"
           id="g105282"><path
             d="m 0,0 c 0,-1.013 -0.821,-1.833 -1.833,-1.833 -1.012,0 -1.832,0.82 -1.832,1.833 0,1.011 0.82,1.833 1.832,1.833 C -0.821,1.833 0,1.011 0,0"
             id="path105284"
             style="fill:#000000;fill-opacity:1;fill-rule:nonzero;stroke:none" /></g><g
           transform="translate(40.9609,323.4146)"
           id="g105286"><path
             d="m 0,0 c 0,-1.043 0.849,-1.892 1.893,-1.892 1.043,0 1.892,0.849 1.892,1.892 0,1.046 -0.849,1.894 -1.892,1.894 C 0.849,1.894 0,1.046 0,0 m -2.941,0 c 0,2.614 2.17,4.739 4.834,4.739 2.665,0 4.834,-2.125 4.834,-4.739 0,-2.611 -2.169,-4.737 -4.834,-4.737 -2.664,0 -4.834,2.126 -4.834,4.737"
             id="path105288"
             style="fill:#000000;fill-opacity:1;fill-rule:nonzero;stroke:none" /></g><g
           transform="translate(32.0996,318.9312)"
           id="g105290"><path
             d="m 0,0 c -0.598,0 -1.187,0.109 -1.476,0.638 -0.289,0.527 -3.546,6.238 -3.801,6.689 -0.233,0.413 -0.15,1.126 0.423,1.409 0.348,0.172 0.521,0.264 0.829,0.416 0.538,0.269 1.212,0.213 1.637,-0.526 0.253,-0.441 2.375,-4.679 2.375,-4.679 l 0.02,0 c 0,0 2.122,4.238 2.378,4.679 C 2.808,9.365 3.484,9.421 4.023,9.152 4.329,9 4.502,8.908 4.851,8.736 5.423,8.453 5.509,7.738 5.274,7.327 4.962,6.777 1.776,1.162 1.473,0.638 1.166,0.117 0.594,0 0,0"
             id="path105292"
             style="fill:#000000;fill-opacity:1;fill-rule:nonzero;stroke:none" /></g><g
           transform="translate(15.2461,318.9312)"
           id="g105294"><path
             d="m 0,0 c -0.597,0 -1.186,0.109 -1.475,0.638 -0.289,0.527 -3.547,6.238 -3.802,6.689 -0.232,0.413 -0.15,1.126 0.423,1.409 0.349,0.172 0.522,0.264 0.829,0.417 0.538,0.268 1.214,0.212 1.638,-0.527 0.254,-0.441 2.373,-4.679 2.373,-4.679 l 0.023,0 c 0,0 2.122,4.238 2.376,4.679 C 2.807,9.365 3.483,9.421 4.021,9.153 4.328,9 4.502,8.908 4.85,8.736 5.424,8.453 5.51,7.738 5.275,7.327 4.961,6.777 1.778,1.162 1.473,0.638 1.166,0.117 0.594,0 0,0"
             id="path105296"
             style="fill:#000000;fill-opacity:1;fill-rule:nonzero;stroke:none" /></g><g
           transform="translate(52.2266,101.4102)"
           id="g105298"><path
             d="M 0,0 C 0.785,0 2.033,1.191 0.725,1.191 -0.061,1.191 -1.309,0 0,0"
             id="path105300"
             style="fill:#000000;fill-opacity:1;fill-rule:nonzero;stroke:none" /></g><g
           transform="translate(51.623,100.3857)"
           id="g105302"><path
             d="m 0,0 c 0.632,-4.472 1.943,-8.818 2.514,-13.301 0.096,-0.761 1.648,-0.2 1.874,0.204 2.017,3.62 3.788,7.462 4.88,11.469 -0.646,-0.121 -1.291,-0.241 -1.937,-0.362 0.993,-4.69 2.444,-9.394 4.891,-13.541 0.369,-0.626 1.691,-0.021 1.863,0.499 1.363,4.108 1.274,8.525 2.514,12.671 0.105,0.351 -0.376,0.474 -0.611,0.502 -4.54,0.531 -10.536,1.082 -14.262,3.98 -0.562,0.437 -2.322,-0.379 -1.52,-1.002 3.973,-3.09 10.223,-3.624 15.062,-4.189 -0.204,0.167 -0.407,0.335 -0.611,0.502 -1.239,-4.146 -1.15,-8.562 -2.513,-12.671 0.621,0.167 1.242,0.333 1.863,0.499 -2.388,4.048 -3.776,8.695 -4.744,13.267 -0.168,0.792 -1.781,0.209 -1.937,-0.362 -1.062,-3.9 -2.791,-7.628 -4.755,-11.152 0.624,0.067 1.249,0.135 1.874,0.204 C 3.875,-8.301 2.563,-3.954 1.932,0.518 1.826,1.263 -0.113,0.801 0,0"
             id="path105304"
             style="fill:#000000;fill-opacity:1;fill-rule:nonzero;stroke:none" /></g><g
           transform="translate(77.5537,101.5342)"
           id="g105306"><path
             d="m 0,0 c -3.266,-3.375 -7.958,-3.266 -12.268,-2.533 -0.929,0.158 -1.971,-1.152 -0.677,-1.371 5.196,-0.884 10.688,-0.635 14.554,3.361 C 2.45,0.326 0.583,0.603 0,0"
             id="path105308"
             style="fill:#000000;fill-opacity:1;fill-rule:nonzero;stroke:none" /></g><g
           transform="translate(51.6191,101.8984)"
           id="g105310"><path
             d="m 0,0 c -0.764,-5.458 0.16,-10.987 -0.261,-16.468 -0.518,-6.75 -4.064,-12.91 -5.184,-19.557 -0.056,-0.333 0.335,-0.489 0.605,-0.484 5.447,0.098 10.208,0.324 15.583,-1.035 3.812,-0.964 8.259,-2.32 12.244,-1.872 6.939,0.779 4.784,8.058 5.581,13.33 0.125,0.827 -1.831,0.5 -1.939,-0.215 -0.341,-2.259 -0.346,-4.568 -0.483,-6.845 -0.06,-1.005 -0.167,-2 -0.306,-2.996 -0.352,-2.532 -3.828,-2.14 -5.686,-1.964 -5.946,0.563 -11.49,3.184 -17.511,3.124 -0.871,-0.008 -1.747,-0.095 -2.616,-0.159 -3.756,-0.277 -3.142,1.703 -2.388,4.395 1.098,3.93 2.674,7.676 3.594,11.664 C 2.693,-12.75 1.045,-6.171 1.939,0.215 2.056,1.046 0.101,0.714 0,0"
             id="path105312"
             style="fill:#000000;fill-opacity:1;fill-rule:nonzero;stroke:none" /></g><g
           transform="translate(79.876,98.0498)"
           id="g105314"><path
             d="m 0,0 c 2.661,-0.128 5.31,-1.64 7.595,-2.887 1.983,-1.082 4.517,-2.435 5.697,-4.444 0.165,0.285 0.329,0.57 0.494,0.855 -2.875,-1.168 -5.917,-1.826 -8.425,-3.737 -1.044,-0.795 0.572,-1.186 1.229,-0.685 2.362,1.798 5.284,2.402 7.993,3.502 0.344,0.14 0.719,0.473 0.494,0.856 -1.34,2.28 -4.333,3.766 -6.558,4.978 C 6.184,-0.287 3.428,1.079 0.721,1.209 -0.087,1.248 -1.311,0.063 0,0"
             id="path105316"
             style="fill:#000000;fill-opacity:1;fill-rule:nonzero;stroke:none" /></g><g
           transform="translate(83.3223,89.8945)"
           id="g105318"><path
             d="m 0,0 c -4.01,1.682 -7.812,-0.601 -9.266,-4.479 -0.747,-1.993 -0.76,-4.365 0.128,-6.304 0.715,-1.562 2.706,-3.378 4.456,-3.603 3.612,-0.463 2.459,4.574 3.065,6.569 0.494,1.628 3.425,2.478 4.602,3.672 C 4.84,-2.263 1.276,-0.621 0,0 c -0.479,0.232 -2.262,-0.5 -1.563,-0.84 1.317,-0.64 4.357,-2.023 2.418,-3.692 -1.109,-0.956 -2.501,-1.524 -3.61,-2.493 -1.534,-1.341 -0.983,-3.879 -1.233,-5.685 -0.026,-0.17 -0.063,-0.338 -0.112,-0.504 -0.21,-0.817 -0.349,0.011 0.329,-0.189 -0.79,0.234 -1.502,0.983 -2.097,1.512 -1.339,1.194 -1.886,2.625 -1.999,4.386 -0.228,3.556 2.182,8.394 6.304,6.665 C -1.07,-1.046 0.699,-0.293 0,0"
             id="path105320"
             style="fill:#000000;fill-opacity:1;fill-rule:nonzero;stroke:none" /></g><g
           transform="translate(46.6748,65.958)"
           id="g105322"><path
             d="m 0,0 c -6.231,-8.018 -15.128,-14.28 -23.146,-20.386 -2.519,-1.918 -5.063,-3.804 -7.63,-5.656 -0.677,-0.488 0.165,0.281 0.742,0.196 -1.1,0.161 -2.16,0.43 -3.22,0.764 -3.553,1.119 -6.42,3.547 -8.939,6.19 -0.433,-0.276 -0.867,-0.552 -1.299,-0.829 5.954,0.257 11.918,-1.096 17.23,-3.779 0.483,-0.244 2.269,0.49 1.561,0.848 -5.536,2.796 -11.805,4.147 -18,3.879 -0.225,-0.01 -1.749,-0.357 -1.299,-0.83 3.214,-3.37 8.233,-7.356 13.284,-7.228 1.858,0.047 4.084,2.506 5.422,3.497 9.347,6.926 19.868,14.114 27.069,23.379 C 2.245,0.649 0.332,0.427 0,0"
             id="path105324"
             style="fill:#000000;fill-opacity:1;fill-rule:nonzero;stroke:none" /></g><g
           transform="translate(76.6279,64.7754)"
           id="g105326"><path
             d="m 0,0 c -5.362,-5.055 -12.519,-7.77 -17.835,-12.856 -3.838,-3.673 -3.478,-5.538 -1.638,-10.183 1.918,-4.841 4.259,-9.53 6.587,-14.184 1.022,-2.043 0.909,-1.017 -0.467,-3.108 -2.423,-3.684 -5.097,-7.345 -8.429,-10.26 0.542,-0.131 1.084,-0.261 1.625,-0.39 -0.041,6.697 3.62,12.008 6.33,17.866 0.472,1.018 -1.482,1.043 -1.852,0.242 -2.769,-5.985 -6.48,-11.429 -6.437,-18.245 0.005,-0.805 1.16,-0.797 1.625,-0.391 4.12,3.606 7.318,8.194 10.203,12.816 0.795,1.272 -3.563,7.912 -4.057,8.957 -1.873,3.962 -6.54,10.733 -3.39,14.73 4.829,6.128 13.381,8.767 19.026,14.088 C 2.241,-0.021 0.726,0.684 0,0"
             id="path105328"
             style="fill:#000000;fill-opacity:1;fill-rule:nonzero;stroke:none" /></g><g
           transform="translate(57.125,100.7031)"
           id="g105330"><path
             d="m 0,0 c -4.467,2.578 -8.854,5.422 -11.365,10.07 -2.707,5.014 -1.207,11.399 0.155,16.561 2.919,11.069 6.569,23.537 16.441,30.257 7.53,5.125 18.72,9.058 27.783,9.461 2.224,0.098 3.97,-0.55 5.879,-1.564 0.552,-0.294 -6.289,-3.995 -7.224,-4.442 -4.14,-1.985 -7.968,-4.188 -11.012,-7.684 -0.477,-0.549 0.143,-0.766 0.652,-0.728 6.25,0.459 14.505,2.317 19.338,-2.791 0.253,0.296 0.507,0.591 0.761,0.887 C 36.053,48.664 31.276,48.891 27.36,44.512 27.105,44.227 27.107,43.879 27.551,43.798 33.09,42.791 38.643,41.219 37.537,34.516 36.375,27.463 31.669,20.662 28.857,14.136 26.007,7.521 23.743,1.062 16.169,-1.225 10.23,-3.017 3.412,-1.011 -2.273,0.802 c -0.635,0.202 -2.271,-0.731 -1.174,-1.08 6.742,-2.149 13.92,-3.755 20.875,-1.657 6.907,2.085 10.342,8.364 12.705,14.677 2.081,5.557 4.994,10.793 7.341,16.24 1.423,3.304 3.026,7.058 1.744,10.639 -0.769,2.147 -3.383,3.438 -5.39,4.055 -2.912,0.895 -7.473,1.447 0.067,3.849 2.488,0.794 5.24,0.846 7.783,1.495 0.267,0.067 1.144,0.482 0.76,0.887 -4.143,4.38 -10.626,3.947 -16.171,3.531 -1.025,-0.078 -3.869,-0.915 -3.073,0 2.103,2.414 5.142,4.009 7.95,5.436 3.468,1.762 6.977,3.267 10.166,5.529 0.258,0.185 0.581,0.561 0.161,0.783 C 34.457,68.905 27.574,67.031 20.275,64.684 12.232,62.097 4.061,58.807 -1.858,52.566 -4.818,49.445 -6.642,45.503 -8.023,41.484 -10.331,34.769 -13.039,28.141 -14.328,21.131 -16.311,10.354 -10.32,4.116 -1.531,-0.955 -0.964,-1.283 0.813,-0.469 0,0"
             id="path105332"
             style="fill:#000000;fill-opacity:1;fill-rule:nonzero;stroke:none" /></g><g
           transform="translate(43.9326,125.752)"
           id="g105334"><path
             d="m 0,0 c -2.957,0.689 -5.427,-0.942 -5.587,-4.016 -0.122,-2.343 1.035,-5.62 3.814,-5.616 0.719,10e-4 2.057,1.095 0.752,1.094 -3.107,-0.005 -4.002,8.386 -0.163,7.491 C -0.571,-1.189 1.097,-0.255 0,0"
             id="path105336"
             style="fill:#000000;fill-opacity:1;fill-rule:nonzero;stroke:none" /></g><g
           transform="translate(85.3828,113.0186)"
           id="g105338"><path
             d="m 0,0 c 1.788,-1.672 2.341,-3.747 1.33,-6.01 -0.632,-1.415 -3.022,-4.39 -4.726,-3.013 -0.397,0.319 -2.073,-0.444 -1.825,-0.645 1.882,-1.52 5.064,0.279 6.562,1.559 2.84,2.423 3.269,6.147 0.483,8.754 C 1.467,0.979 -0.26,0.243 0,0"
             id="path105340"
             style="fill:#000000;fill-opacity:1;fill-rule:nonzero;stroke:none" /></g><g
           transform="translate(55.0352,228.7871)"
           id="g105342"><path
             d="M 0,0 C 3.113,2.959 2.343,7.92 5.447,10.892 4.991,10.77 4.536,10.647 4.081,10.525 8.404,9.931 8.376,4.964 8.736,1.563 9.104,1.821 9.471,2.08 9.839,2.338 6.333,1.874 2.872,1.127 -0.634,0.663 -1.551,0.541 -2.248,-0.549 -0.907,-0.372 2.599,0.093 6.06,0.84 9.565,1.304 9.931,1.353 10.721,1.582 10.668,2.08 10.283,5.716 10.023,11.504 5.056,11.569 3.247,11.593 2.161,9.066 1.591,7.688 0.572,5.228 0.489,2.223 -1.541,0.291 -2.352,-0.479 -0.441,-0.42 0,0"
             id="path105344"
             style="fill:#000000;fill-opacity:1;fill-rule:nonzero;stroke:none" /></g><g
           transform="translate(60.5752,239.3369)"
           id="g105346"><path
             d="M 0,0 C 16.698,-1.642 28.045,17.09 30.718,31.318 33.694,47.164 20.94,59.863 5.73,61.104 -9.982,62.386 -20.995,49.226 -22.868,34.588 c -1.044,-8.156 1.195,-16.473 5.709,-23.267 3.632,-5.467 10.515,-11.336 17.373,-11.336 0.662,0 2.078,1.005 0.775,1.005 -5.855,0 -11.392,4.955 -14.974,9.222 -4.439,5.288 -6.615,12.173 -7.111,18.966 -1.087,14.876 8.779,31.082 24.828,30.981 C 16.86,60.076 28.609,49.598 29.224,36.43 29.882,22.331 17.342,-0.612 1.203,0.975 0.657,1.028 -1.058,0.104 0,0"
             id="path105348"
             style="fill:#000000;fill-opacity:1;fill-rule:nonzero;stroke:none" /></g><g
           transform="translate(60.6152,226.7437)"
           id="g105350"><path
             d="m 0,0 c 0.161,0.904 0.322,1.808 0.484,2.711 0.15,0.837 -1.808,0.526 -1.941,-0.207 -2.392,-13.176 -3.309,-26.489 -3.351,-39.869 -0.003,-0.89 1.939,-0.512 1.942,0.207 0.042,13.38 0.959,26.693 3.35,39.869 C -0.163,2.643 -0.81,2.573 -1.457,2.504 -1.618,1.601 -1.779,0.697 -1.941,-0.207 -2.091,-1.043 -0.131,-0.734 0,0"
             id="path105352"
             style="fill:#000000;fill-opacity:1;fill-rule:nonzero;stroke:none" /></g><g
           transform="translate(41.4072,133.6816)"
           id="g105354"><path
             d="m 0,0 c -0.252,11.316 2.649,23.799 8.368,33.648 1.096,1.886 4.279,7.201 7.455,4.72 1.529,-1.195 1.447,-3.347 1.515,-5.079 0.149,-3.812 -0.252,-7.732 -0.829,-11.498 -0.09,-0.58 1.834,-0.223 1.914,0.305 0.598,3.893 3.224,22.585 -6.099,17.529 C 7.956,37.256 5.478,32.121 3.704,27.691 0.111,18.717 -2.147,9.18 -1.932,-0.518 -1.922,-0.948 0.014,-0.621 0,0"
             id="path105356"
             style="fill:#000000;fill-opacity:1;fill-rule:nonzero;stroke:none" /></g><g
           transform="translate(55.4316,185.833)"
           id="g105358"><path
             d="M 0,0 C -0.153,1.743 -0.617,3.381 -0.477,5.153 -0.994,4.928 -1.511,4.704 -2.027,4.479 0.288,3.664 2.078,1.947 4.396,1.128 4.843,0.971 5.868,1.239 5.945,1.802 6.602,2.609 7.258,3.417 7.914,4.225 7.544,4.321 7.174,4.416 6.803,4.511 7.081,-0.348 6.969,-6.024 4.791,-10.472 c -2.258,-4.61 -9.456,0.761 -7.316,4.97 1.011,1.989 2.662,3.1 2.525,5.502 -0.041,0.714 -1.979,0.292 -1.932,-0.518 0.225,-3.948 -4.667,-5.337 -2.311,-9.608 1.54,-2.792 5.545,-4.143 8.421,-2.957 5.451,2.25 4.821,13.494 4.556,18.112 C 8.709,5.464 7.862,5.383 7.623,5.315 5.592,4.736 4.308,3.776 4.006,1.592 4.521,1.816 5.039,2.041 5.556,2.265 3.24,3.082 1.451,4.799 -0.867,5.616 -1.291,5.765 -2.373,5.509 -2.418,4.943 -2.564,3.08 -2.094,1.324 -1.932,-0.518 -1.868,-1.241 0.071,-0.806 0,0"
             id="path105360"
             style="fill:#000000;fill-opacity:1;fill-rule:nonzero;stroke:none" /></g><g
           transform="translate(77.46,100.3525)"
           id="g105362"><path
             d="m 0,0 c 1.825,-2.615 1.904,-7.508 0.794,-10.404 -0.279,-0.73 1.672,-0.498 1.941,0.205 C 3.92,-7.11 3.713,-1.969 1.783,0.793 1.36,1.399 -0.504,0.721 0,0"
             id="path105364"
             style="fill:#000000;fill-opacity:1;fill-rule:nonzero;stroke:none" /></g><g
           transform="translate(54.835,109.9092)"
           id="g105366"><path
             d="m 0,0 c 0.353,-1.881 4.844,-3.127 6.287,-3.537 3.275,-0.931 6.897,-0.57 9.136,2.204 0.77,0.954 -1.068,1.237 -1.613,0.561 C 11.871,-3.173 8.935,-2.762 6.303,-1.909 5.474,-1.641 2.136,-0.572 1.932,0.518 1.765,1.406 -0.171,0.91 0,0"
             id="path105368"
             style="fill:#000000;fill-opacity:1;fill-rule:nonzero;stroke:none" /></g><g
           transform="translate(66.6045,109.5498)"
           id="g105370"><path
             d="M 0,0 C 1.716,0.261 2.279,-1.754 2.298,-3.11 2.31,-3.958 4.243,-3.551 4.233,-2.884 4.219,-1.813 4.035,-0.794 3.408,0.097 2.701,1.102 1.38,1.299 0.248,1.127 -0.125,1.07 -0.747,0.891 -0.844,0.45 -0.939,0.016 -0.272,-0.041 0,0"
             id="path105372"
             style="fill:#000000;fill-opacity:1;fill-rule:nonzero;stroke:none" /></g><g
           transform="translate(72.1855,116.6787)"
           id="g105374"><path
             d="M 0,0 C 0.074,0.759 0.237,1.081 1.069,1.229 1.82,1.348 2.746,1.093 2.682,0.139 2.547,-1.537 -0.217,-0.933 0.154,0.516"
             id="path105376"
             style="fill:#000000;fill-opacity:1;fill-rule:nonzero;stroke:none" /></g><g
           transform="translate(71.9297,117.0059)"
           id="g105378"><path
             d="M 0,0 C 1.506,1.952 3.327,0.134 4.952,-0.584 5.232,-0.707 6.039,-0.271 5.948,-0.23 4.545,0.389 3.438,1.441 1.815,1.33 0.592,1.247 -0.289,0.779 -1.039,-0.193 -1.095,-0.266 -0.188,-0.244 0,0"
             id="path105380"
             style="fill:#000000;fill-opacity:1;fill-rule:nonzero;stroke:none" /></g><g
           transform="translate(51.7773,122.6348)"
           id="g105382"><path
             d="m 0,0 c -0.143,-0.911 0.476,-2.057 1.553,-1.86 0.469,0.085 1.112,0.692 0.922,1.221 -0.107,0.336 -1.014,0.661 -1.351,0.692 -0.27,0.019 -1.225,0.032 -1.199,-0.246"
             id="path105384"
             style="fill:#000000;fill-opacity:1;fill-rule:nonzero;stroke:none" /></g><g
           transform="translate(55.5723,121.0986)"
           id="g105386"><path
             d="M 0,0 C -0.566,0.843 -0.997,1.465 -1.979,1.828 -3.133,2.256 -4.273,1.731 -5.431,1.942 -5.609,1.976 -6.229,1.687 -5.862,1.62 -4.936,1.45 -4.043,1.754 -3.109,1.661 -1.844,1.536 -1.282,0.707 -0.639,-0.25 -0.533,-0.406 0.129,-0.191 0,0"
             id="path105388"
             style="fill:#000000;fill-opacity:1;fill-rule:nonzero;stroke:none" /></g></g></g></g></svg>