<?xml version="1.0" encoding="UTF-8" standalone="no"?>
<!-- Created with Inkscape (http://www.inkscape.org/) -->

<svg
   xmlns:dc="http://purl.org/dc/elements/1.1/"
   xmlns:cc="http://creativecommons.org/ns#"
   xmlns:rdf="http://www.w3.org/1999/02/22-rdf-syntax-ns#"
   xmlns:svg="http://www.w3.org/2000/svg"
   xmlns="http://www.w3.org/2000/svg"
   version="1.1"
   width="248.0325"
   height="425.19626"
   id="svg105763"
   xml:space="preserve"><metadata
     id="metadata105769"><rdf:RDF><cc:Work
         rdf:about=""><dc:format>image/svg+xml</dc:format><dc:type
           rdf:resource="http://purl.org/dc/dcmitype/StillImage" /><dc:title></dc:title></cc:Work></rdf:RDF></metadata><defs
     id="defs105767"><clipPath
       id="clipPath105777"><path
         d="m 0,340.157 198.426,0 L 198.426,0 0,0 0,340.157 z"
         id="path105779" /></clipPath><clipPath
       id="clipPath105785"><path
         d="m -102.528,2.484 -199.488,0 0,338.004 199.488,0 0,-338.004 z"
         id="path105787" /></clipPath><clipPath
       id="clipPath105803"><path
         d="m 0.595,0 197.831,0 0,340.157 -197.831,0 L 0.595,0 z"
         id="path105805" /></clipPath></defs><g
     transform="matrix(1.25,0,0,-1.25,0,425.19625)"
     id="g105771"><g
       id="g105773"><g
         clip-path="url(#clipPath105777)"
         id="g105775"><g
           id="g105781"><g
             clip-path="url(#clipPath105785)"
             id="g105783"><g
               transform="translate(-199.6455,85.6045)"
               id="g105789"><path
                 d="m 0,0 0,4.006 c 29.413,12.648 59.385,23.998 89.439,36.043 22.363,8.963 44.391,19.818 66.077,28.034 7.852,2.973 15.926,4.598 24.028,7.341 11.276,3.817 21.464,10.179 33.373,12.015 C 205.784,81.162 196.249,78.428 187.556,75.424 158.686,65.456 133.461,54.372 106.794,43.388 71.373,28.795 35.641,14.329 0,0"
                 id="path105791"
                 style="fill:#000000;fill-opacity:1;fill-rule:evenodd;stroke:none" /></g><g
               transform="translate(-199.6455,39.5518)"
               id="g105793"><path
                 d="m 0,0 0,4.004 c 73.736,28.311 151.06,59.499 228.269,84.1 4.644,1.48 9.496,5.042 14.685,4.005 -7.781,-7.917 -19.481,-8.558 -29.37,-12.015 C 141.499,54.896 68.137,27.227 0,0"
                 id="path105795"
                 style="fill:#000000;fill-opacity:1;fill-rule:evenodd;stroke:none" /></g></g></g></g></g><path
       d="m 0.595,0 197.831,0 0,340.157 -197.831,0 L 0.595,0 z"
       id="path105797"
       style="fill:#ffffff;fill-opacity:1;fill-rule:nonzero;stroke:none" /><g
       id="g105799"><g
         clip-path="url(#clipPath105803)"
         id="g105801"><g
           transform="translate(168.9912,260.0161)"
           id="g105807"><path
             d="m 0,0 0,3.984 c 31.256,12.811 62.105,28.639 92.331,41.847 10.964,4.795 20.952,10.082 31.218,12.622 -2.255,-5.097 -8.783,-7.157 -13.285,-9.3 C 73.656,31.726 36.389,16.817 0,0"
             id="path105809"
             style="fill:#000000;fill-opacity:1;fill-rule:evenodd;stroke:none" /></g><g
           transform="translate(168.9912,225.4741)"
           id="g105811"><path
             d="m 0,0 0,4.652 c 23.515,11.516 48.754,18.773 72.402,29.224 23.666,10.461 46.143,23.134 70.409,31.886 -3.592,-5.746 -10.806,-6.832 -16.607,-9.301 -5.875,-2.5 -11.508,-5.892 -17.267,-8.635 C 73.093,30.763 35.083,16.946 0,0"
             id="path105813"
             style="fill:#000000;fill-opacity:1;fill-rule:evenodd;stroke:none" /></g><g
           transform="translate(168.9912,183.627)"
           id="g105815"><path
             d="m 0,0 0,3.986 c 27.082,12.35 54.78,23.926 82.365,35.869 13.674,5.919 27.615,11.433 41.184,17.271 13.683,5.887 26.546,13.999 41.184,16.606 -4.768,-5.536 -12.063,-7.643 -18.6,-10.627 C 98.198,41.214 47.747,21.517 0,0"
             id="path105817"
             style="fill:#000000;fill-opacity:1;fill-rule:evenodd;stroke:none" /></g><g
           transform="translate(168.9912,142.4434)"
           id="g105819"><path
             d="m 0,0 0,3.322 c 47.346,18.46 94.105,41.032 140.818,59.784 8.123,3.259 16.593,5.06 24.577,8.632 7.589,3.398 14.736,8.52 23.25,9.301 C 182.688,74.712 173.584,73.618 166.06,70.411 111.123,47.002 55.213,22.741 0,0"
             id="path105821"
             style="fill:#000000;fill-opacity:1;fill-rule:evenodd;stroke:none" /></g><g
           transform="translate(168.9912,106.5752)"
           id="g105823"><path
             d="m 0,0 0,3.986 c 29.271,12.587 59.1,23.883 89.009,35.868 22.255,8.921 44.177,19.725 65.759,27.899 7.814,2.961 15.849,4.577 23.912,7.306 11.221,3.8 21.36,10.132 33.212,11.959 -7.099,-6.248 -16.587,-8.97 -25.24,-11.959 C 157.922,65.14 132.818,54.11 106.279,43.177 71.029,28.654 35.469,14.261 0,0"
             id="path105825"
             style="fill:#000000;fill-opacity:1;fill-rule:evenodd;stroke:none" /></g><g
           transform="translate(168.9912,60.7441)"
           id="g105827"><path
             d="m 0,0 0,3.983 c 73.381,28.177 150.332,59.214 227.17,83.696 4.621,1.472 9.45,5.019 14.614,3.987 C 234.04,83.787 222.396,83.148 212.557,79.708 140.818,54.631 67.809,27.096 0,0"
             id="path105829"
             style="fill:#000000;fill-opacity:1;fill-rule:evenodd;stroke:none" /></g><g
           transform="translate(26.2822,101.4775)"
           id="g105831"><path
             d="m 0,0 c 0,32.899 -0.581,65.861 0.41,98.749 0.245,8.118 0.665,16.175 0.308,24.297 -0.335,7.6 -0.704,15.131 -0.327,22.737 0.466,9.444 -0.395,19.845 4.381,28.399 2.889,5.173 7.575,7.184 13.098,8.52 7.658,1.852 15.683,2.142 23.526,2.09 7.616,-0.049 15.22,-0.597 22.821,-1.019 8.154,-0.453 16.297,-0.487 24.46,-0.303 8.19,0.184 16.378,0.51 24.571,0.503 5.568,-0.005 11.305,0.358 16.833,-0.412 4.907,-0.684 9.112,-2.971 10.396,-8.03 1.861,-7.33 2.339,-15.341 2.934,-22.861 1.151,-14.56 0.761,-29.177 0.257,-43.756 -0.522,-15.072 -0.665,-30.109 -0.24,-45.186 0.863,-30.66 2.956,-61.338 2.507,-92.024 -0.116,-7.864 -0.544,-15.725 -1.451,-23.54 -0.602,-5.194 -0.969,-10.668 -4.228,-14.972 -4.957,-6.546 -14.642,-7.007 -22.111,-7.212 -8.367,-0.229 -16.738,0.69 -25.098,0.321 -16.182,-0.713 -32.252,0.543 -48.405,1.346 -5.752,0.287 -11.527,0.521 -17.287,0.422 -4.431,-0.076 -9.019,-0.738 -13.31,0.71 -9.25,3.121 -12.719,14.104 -13.549,22.825 -0.447,4.708 0.115,9.39 0.139,14.1 0.02,4.142 -0.416,8.275 -0.495,12.415 -0.16,8.36 0.778,16.883 -0.442,25.192 -0.138,0.942 -5.538,-0.179 -5.353,-1.434 0.811,-5.525 0.584,-11.226 0.509,-16.792 -0.074,-5.481 -0.01,-10.912 0.296,-16.387 0.332,-5.947 -0.455,-11.869 -0.064,-17.808 0.394,-5.995 1.967,-12.02 5.394,-17.012 3.213,-4.679 8.057,-7.511 13.694,-7.955 2.733,-0.215 5.465,-0.058 8.201,0.046 3.949,0.149 7.912,0.03 11.861,-0.093 16.369,-0.508 32.692,-2.22 49.084,-1.883 4.74,0.098 9.424,0.371 14.165,0.236 4.421,-0.126 8.84,-0.323 13.263,-0.344 8.955,-0.044 18.256,0.576 26.561,4.203 3.443,1.503 6.547,3.733 8.738,6.809 2.967,4.166 3.197,9.818 3.79,14.702 1.903,15.663 1.616,31.519 1.233,47.26 -0.732,30.102 -2.675,60.215 -2.597,90.329 0.078,29.951 3.306,60.124 -2.643,89.777 -2.058,10.257 -16.25,9.097 -24.006,9.03 -16.128,-0.14 -32.33,-1.009 -48.453,-0.442 -15.202,0.534 -30.35,2.235 -45.542,0.46 -10.79,-1.261 -23.786,-3.548 -29.076,-14.255 -4.103,-8.305 -3.313,-18.425 -3.716,-27.41 -0.341,-7.607 -0.024,-15.135 0.327,-22.736 C -4.26,113.492 -4.688,105.43 -4.942,97.314 -5.971,64.43 -5.354,31.463 -5.354,-1.434 -5.354,-2.16 0,-1.434 0,0"
             id="path105833"
             style="fill:#000000;fill-opacity:1;fill-rule:nonzero;stroke:none" /></g><g
           transform="translate(91.9766,276.3906)"
           id="g105835"><path
             d="m 0,0 c -2.63,-0.033 -7.519,-0.95 -7.486,2.941 -1.06,-0.566 -2.118,-1.132 -3.177,-1.698 5.612,1.028 11.457,0.43 17.139,0.563 2.337,0.055 4.675,0.079 7.013,-0.007 1.482,-0.055 4.059,0.133 4.965,-1.325 0.405,-0.65 -0.237,-0.626 0.741,-0.331 -0.613,-0.185 -1.301,-0.219 -1.94,-0.279 -1.734,-0.163 -3.48,-0.176 -5.22,-0.17 -3.907,0.014 -7.821,-0.003 -11.733,0.005 -1.284,0.003 -2.689,-0.328 -3.785,-1.014 -0.84,-0.525 -0.731,-1.157 0.31,-1.159 4.787,-0.01 9.549,-0.084 14.334,0.016 2.472,0.052 4.977,0.172 7.398,0.709 1.542,0.342 4.793,0.971 5.335,2.798 C 25.012,4.826 13.155,4.034 11.615,4.012 4.561,3.913 -2.699,4.48 -9.663,3.205 -10.415,3.067 -12.831,2.594 -12.84,1.506 c -0.037,-4.574 6.352,-3.716 9.365,-3.679 1.292,0.016 2.678,0.322 3.786,1.014 C 1.139,-0.641 1.051,0.013 0,0"
             id="path105837"
             style="fill:#000000;fill-opacity:1;fill-rule:nonzero;stroke:none" /></g><g
           transform="translate(45.252,262.4683)"
           id="g105839"><path
             d="m 0,0 c -3.569,-0.039 -7.136,-0.498 -10.69,0.001 -1.157,0.162 -3.602,-0.578 -3.661,-2.064 -0.628,-15.943 0.533,-31.882 0.238,-47.826 -0.302,-16.31 -1.666,-32.511 -1.253,-48.841 0.402,-15.905 1.307,-31.808 2.151,-47.694 0.422,-7.957 0.747,-15.923 0.632,-23.893 -0.115,-7.967 -0.822,-15.915 -0.89,-23.887 -0.022,-2.589 -0.781,-6.802 2.281,-7.984 1.486,-0.573 3.172,-0.46 4.731,-0.407 3.463,0.118 6.948,-0.271 10.404,-0.449 6.856,-0.355 13.776,-0.102 20.639,-0.102 l 20.722,0 c 12.267,0 24.494,0.3 36.753,0.756 12.38,0.462 24.807,0.863 37.171,-0.174 1.282,-0.108 3.446,0.534 3.66,2.064 0.505,3.608 0.298,7.19 -0.052,10.802 -0.413,4.272 -0.645,8.372 -0.426,12.661 0.403,7.924 -0.369,15.865 -0.397,23.789 -0.029,7.941 -0.968,15.851 -0.459,23.792 0.471,7.374 0.586,14.725 -0.058,22.093 -0.599,6.865 -1.293,13.567 -1.22,20.476 0.082,7.74 0.823,15.457 0.849,23.198 0.025,7.53 -0.936,15.082 -1.359,22.597 -0.464,8.225 -0.736,16.46 -0.921,24.695 -0.086,3.812 0.384,7.605 0.096,11.416 -0.335,4.44 -2.969,5.941 -7.275,5.9 C 106.249,0.867 100.911,1.605 95.493,1.883 89.901,2.169 84.293,2.217 78.696,2.084 65.183,1.763 51.714,1.175 38.188,1.167 25.425,1.16 12.676,1.475 0,-0.292 c -1.127,-0.156 -2.776,-0.732 -2.976,-2.063 -0.191,-1.276 1.469,-1.714 2.427,-1.58 15.026,2.094 30.254,1.415 45.38,1.474 15.127,0.059 30.275,1.312 45.392,0.836 6.444,-0.202 12.937,-1.404 19.367,-1.133 0.985,0.042 2.619,0.299 3.293,-0.593 0.486,-0.645 0.546,-1.769 0.651,-2.536 0.32,-2.348 0.081,-4.797 -0.055,-7.152 -0.409,-7.052 0.223,-14.286 0.528,-21.339 0.34,-7.868 0.828,-15.729 1.461,-23.579 0.954,-11.818 -0.809,-23.713 -0.564,-35.555 0.1,-4.796 0.58,-9.56 1.147,-14.32 0.725,-6.094 0.607,-12.295 0.311,-18.413 -0.596,-12.347 0.02,-24.749 0.49,-37.104 0.241,-6.326 -0.023,-12.574 -0.045,-18.891 -0.023,-6.293 1.559,-12.442 0.678,-18.744 1.221,0.689 2.441,1.377 3.661,2.065 -14.616,1.227 -29.333,0.524 -43.963,-0.032 -15.58,-0.592 -31.146,-0.55 -46.735,-0.55 -8.181,0 -16.412,-0.255 -24.586,0.102 -3.685,0.161 -7.42,0.654 -11.111,0.48 -1.885,-0.09 -2.625,-0.531 -2.808,1.438 -0.288,3.108 0.007,6.373 0.102,9.485 0.127,4.166 0.356,8.329 0.554,12.492 0.37,7.815 0.226,15.614 -0.112,23.428 -1.088,25.103 -3.313,50.284 -2.375,75.423 0.471,12.625 1.348,25.198 1.189,37.84 -0.156,12.412 -0.739,24.822 -0.249,37.233 -1.221,-0.688 -2.441,-1.376 -3.66,-2.065 4.003,-0.561 8.04,-0.043 12.059,10e-4 C 2.402,-3.612 3.65,0.04 0,0"
             id="path105841"
             style="fill:#000000;fill-opacity:1;fill-rule:nonzero;stroke:none" /></g><g
           transform="translate(100.0449,41.5869)"
           id="g105843"><path
             d="m 0,0 c -2.029,0.493 -4.044,0.593 -6.122,0.647 -1.742,0.047 -3.131,0.268 -3.946,1.973 -0.55,1.151 -1.474,5.691 0.086,6.354 1.388,0.589 4.643,-0.08 6.356,-0.075 4.562,0.015 13.025,3.127 14.27,-3.359 0.33,-1.72 0.708,-5.112 -1.303,-5.884 -2.873,-1.103 -7.289,0.12 -10.215,0.63 -1.301,0.227 -6.223,-1.911 -3.414,-2.4 4.432,-0.772 9.035,-1.369 13.479,-0.348 2.994,0.688 6.479,1.993 6.886,5.421 0.413,3.487 -0.167,7.114 -3.768,8.478 -3.647,1.379 -8.266,0.359 -12.006,-0.014 -4.887,-0.488 -15.644,1.672 -16.364,-5.713 -0.271,-2.782 0.501,-5.874 3.26,-6.991 2.59,-1.049 5.739,-0.29 8.444,-0.948 1.225,-0.297 2.657,0.068 3.756,0.63 C -0.136,-1.36 1.239,-0.302 0,0"
             id="path105845"
             style="fill:#000000;fill-opacity:1;fill-rule:nonzero;stroke:none" /></g><g
           transform="translate(51.6797,43.3682)"
           id="g105847"><path
             d="M 0,0 C -0.303,2.152 -0.662,4.293 -0.841,6.46 -2.086,5.735 -3.33,5.01 -4.575,4.285 -0.289,4.441 4.047,4.83 8.31,4.196 L 7.29,5.248 C 7.114,3.28 6.938,1.366 7.285,-0.592 7.594,-2.333 12.973,-1.047 12.639,0.842 12.334,2.563 12.479,4.228 12.634,5.955 12.69,6.6 12.218,6.917 11.614,7.007 6.936,7.702 2.242,7.374 -2.46,7.201 -3.598,7.16 -6.328,6.646 -6.194,5.026 -6.015,2.858 -5.655,0.719 -5.354,-1.434 -5.112,-3.147 0.27,-1.923 0,0"
             id="path105849"
             style="fill:#000000;fill-opacity:1;fill-rule:nonzero;stroke:none" /></g><g
           transform="translate(140.7207,41.7129)"
           id="g105851"><path
             d="m 0,0 c -0.279,-0.1 -0.637,-0.066 0.055,-0.052 -0.568,-0.011 0.874,-0.012 1.117,-0.014 1.447,-0.015 2.895,-0.009 4.336,0.149 2.494,0.275 6.418,1.304 6.688,4.36 0.556,6.275 -13.758,7.037 -13.337,0.941 L 2.495,7.927 C 1.754,7.97 1.356,8.108 0.775,8.57 0.662,7.712 0.55,6.853 0.437,5.993 1.229,6.63 2.02,7.261 2.854,7.842 1.38,7.971 -0.093,8.099 -1.566,8.228 -1.473,7.546 -1.499,6.961 -1.591,6.284 0.003,6.856 1.598,7.429 3.192,8 2.812,8.399 2.726,8.431 2.934,8.096 2.353,10.41 -3.004,8.992 -2.42,6.662 -2.237,5.933 -1.526,5.471 -0.972,5.051 0.362,4.039 3.569,4.993 3.812,6.767 3.945,7.742 3.92,8.688 3.787,9.661 3.532,11.523 0.253,10.664 -0.633,10.047 -1.467,9.465 -2.258,8.835 -3.05,8.198 -3.951,7.474 -4.438,6.454 -3.389,5.621 -2.237,4.707 -0.872,4.358 0.577,4.274 2.11,4.186 4.34,4.972 4.213,6.817 4.252,6.253 3.417,5.807 3.019,5.75 3.408,5.805 3.791,5.749 4.179,5.707 4.849,5.634 5.551,5.44 6.143,5.118 6.465,4.943 6.775,4.398 6.793,3.961 6.806,3.652 7.269,4.014 6.884,3.898 4.637,3.221 1.563,4.271 -0.908,3.391 -1.854,3.055 -3.481,2.287 -3.131,0.979 -2.809,-0.223 -0.945,-0.337 0,0"
             id="path105853"
             style="fill:#000000;fill-opacity:1;fill-rule:nonzero;stroke:none" /></g><g
           transform="translate(53.3428,44.8398)"
           id="g105855"><path
             d="M 0,0 2.309,0 C 3.332,0 4.738,0.386 5.42,1.208 6.129,2.065 4.814,2.316 4.223,2.316 l -2.309,0 C 0.891,2.316 -0.516,1.931 -1.197,1.108 -1.906,0.251 -0.592,0 0,0"
             id="path105857"
             style="fill:#100f0d;fill-opacity:1;fill-rule:nonzero;stroke:none" /></g><g
           transform="translate(53.8213,41.5928)"
           id="g105859"><path
             d="M 0,0 C 0.291,0.038 0.583,0.064 0.877,0.08 0.244,0.047 1.189,0.077 1.33,0.077 2.413,0.077 3.796,0.402 4.409,1.402 4.984,2.342 3.925,2.958 3.092,2.958 2.251,2.958 1.407,2.953 0.572,2.844 -0.351,2.723 -1.848,2.244 -2.064,1.163 -2.281,0.082 -0.704,-0.092 0,0"
             id="path105861"
             style="fill:#100f0d;fill-opacity:1;fill-rule:nonzero;stroke:none" /></g><g
           transform="translate(57.2588,317.6743)"
           id="g105863"><path
             d="m 0,0 c 0,-3.108 -2.52,-5.628 -5.628,-5.628 l -46.003,0 c -3.108,0 -5.628,2.52 -5.628,5.628 l 0,18.176 c 0,3.109 2.52,5.628 5.628,5.628 l 46.003,0 C -2.52,23.804 0,21.285 0,18.176 L 0,0 z"
             id="path105865"
             style="fill:#ffffff;fill-opacity:1;fill-rule:nonzero;stroke:none" /></g><g
           transform="translate(21.9414,320.9448)"
           id="g105867"><path
             d="M 0,0 0,6.861 C 0,7.56 0.466,8.065 1.103,8.065 l 1.033,0 c 0.638,0 1.101,-0.505 1.101,-1.204 L 3.237,0 c 0,-0.699 -0.463,-1.203 -1.101,-1.203 l -1.033,0 C 0.466,-1.203 0,-0.699 0,0"
             id="path105869"
             style="fill:#000000;fill-opacity:1;fill-rule:nonzero;stroke:none" /></g><g
           transform="translate(25.4072,332.0332)"
           id="g105871"><path
             d="m 0,0 c 0,-1.008 -0.816,-1.824 -1.824,-1.824 -1.007,0 -1.824,0.816 -1.824,1.824 0,1.006 0.817,1.824 1.824,1.824 C -0.816,1.824 0,1.006 0,0"
             id="path105873"
             style="fill:#000000;fill-opacity:1;fill-rule:nonzero;stroke:none" /></g><g
           transform="translate(40.7646,324.3823)"
           id="g105875"><path
             d="m 0,0 c 0,-1.038 0.844,-1.882 1.882,-1.882 1.039,0 1.884,0.844 1.884,1.882 0,1.041 -0.845,1.885 -1.884,1.885 C 0.844,1.885 0,1.041 0,0 m -2.928,0 c 0,2.602 2.158,4.716 4.81,4.716 2.653,0 4.811,-2.114 4.811,-4.716 0,-2.599 -2.158,-4.714 -4.811,-4.714 -2.652,0 -4.81,2.115 -4.81,4.714"
             id="path105877"
             style="fill:#000000;fill-opacity:1;fill-rule:nonzero;stroke:none" /></g><g
           transform="translate(31.9453,319.9204)"
           id="g105879"><path
             d="m 0,0 c -0.595,0 -1.182,0.109 -1.469,0.635 -0.288,0.525 -3.53,6.208 -3.783,6.657 -0.231,0.411 -0.149,1.121 0.421,1.402 0.348,0.172 0.518,0.263 0.824,0.414 0.536,0.268 1.207,0.212 1.63,-0.523 0.253,-0.439 2.364,-4.657 2.364,-4.657 l 0.02,0 c 0,0 2.111,4.218 2.365,4.657 C 2.794,9.32 3.467,9.376 4.003,9.108 4.308,8.957 4.479,8.866 4.827,8.694 5.396,8.413 5.482,7.701 5.249,7.292 4.938,6.745 1.768,1.156 1.465,0.635 1.16,0.117 0.591,0 0,0"
             id="path105881"
             style="fill:#000000;fill-opacity:1;fill-rule:nonzero;stroke:none" /></g><g
           transform="translate(15.1729,319.9204)"
           id="g105883"><path
             d="m 0,0 c -0.594,0 -1.181,0.109 -1.468,0.635 -0.287,0.525 -3.53,6.208 -3.784,6.657 -0.23,0.411 -0.148,1.121 0.422,1.402 0.347,0.172 0.517,0.263 0.823,0.415 0.536,0.267 1.21,0.211 1.631,-0.524 0.253,-0.439 2.362,-4.657 2.362,-4.657 l 0.022,0 c 0,0 2.112,4.218 2.365,4.657 C 2.793,9.32 3.467,9.376 4.002,9.109 4.308,8.957 4.48,8.866 4.826,8.694 5.397,8.413 5.483,7.701 5.25,7.292 4.937,6.745 1.77,1.156 1.465,0.635 1.16,0.117 0.591,0 0,0"
             id="path105885"
             style="fill:#000000;fill-opacity:1;fill-rule:nonzero;stroke:none" /></g><g
           transform="translate(88.9932,166.293)"
           id="g105887"><path
             d="m 0,0 c 0,0 -7.895,-28.387 -10.894,-52.524 0,0 10.046,-2.401 39.734,-2.551 0,0 -3.994,39.203 -3.196,53.262 L 0,0 z"
             id="path105889"
             style="fill:#ffffff;fill-opacity:1;fill-rule:nonzero;stroke:none" /></g><g
           transform="translate(78.9473,114.375)"
           id="g105891"><path
             d="M 0,0 C 2.658,-0.503 13.545,-2.227 38.042,-2.389 37.479,3.302 34.323,36.062 34.89,49.396 L 10.617,51.11 C 9.479,46.925 2.774,21.725 0,0 M 39.731,-3.924 38.882,-3.92 C 9.445,-3.772 -0.61,-1.448 -1.024,-1.351 l -0.664,0.159 0.084,0.677 C 1.366,23.406 9.231,51.837 9.311,52.122 l 0.167,0.6 27.017,-1.908 -0.045,-0.751 c -0.784,-13.84 3.155,-52.751 3.196,-53.141 l 0.085,-0.846 z"
             id="path105893"
             style="fill:#000000;fill-opacity:1;fill-rule:nonzero;stroke:none" /></g><g
           transform="translate(111.8281,163.5918)"
           id="g105895"><path
             d="m 0,0 c 0,0 -3.065,-17.896 -4.019,-18.374 -0.955,-0.479 -7.445,12.406 -7.445,12.406 0,0 -10.197,-11.166 -11.015,-10.592 -0.818,0.573 1.881,18.24 1.881,18.24 L 0,0 z"
             id="path105897"
             style="fill:#ffffff;fill-opacity:1;fill-rule:nonzero;stroke:none" /></g><g
           transform="translate(100.5479,158.957)"
           id="g105899"><path
             d="m 0,0 0.5,-0.988 c 2.4,-4.77 5.245,-9.925 6.496,-11.567 0.734,2.278 2.188,9.571 3.391,16.496 L -8.67,5.496 c -1.007,-6.684 -1.893,-13.812 -1.927,-16.268 1.749,1.388 6.063,5.807 9.85,9.956 L 0,0 z m 7.203,-14.514 c -0.467,0 -1.542,0 -7.568,11.852 -6.13,-6.67 -9.746,-10.047 -10.755,-10.049 -0.189,0 -0.368,0.056 -0.517,0.16 -0.451,0.316 -1.206,0.844 1.565,18.982 L -9.964,7.134 12.174,5.328 12.033,4.506 C 8.902,-13.772 7.991,-14.227 7.603,-14.422 l -0.163,-0.08 -0.237,-0.012 z"
             id="path105901"
             style="fill:#000000;fill-opacity:1;fill-rule:nonzero;stroke:none" /></g><g
           transform="translate(123.543,178.8823)"
           id="g105903"><path
             d="M 0,0 C 0,0 3.61,0.807 4.847,-1.86 6.085,-4.528 3.9,-9.622 -1.255,-7.424 L 0,0 z"
             id="path105905"
             style="fill:#ffffff;fill-opacity:1;fill-rule:nonzero;stroke:none" /></g><g
           transform="translate(123.1445,171.9492)"
           id="g105907"><path
             d="m 0,0 c 0.535,-0.176 1.04,-0.264 1.513,-0.264 1.429,0 2.241,0.801 2.669,1.472 0.687,1.077 0.839,2.533 0.37,3.543 C 4.081,5.769 3.093,6.285 1.616,6.285 1.406,6.285 1.218,6.273 1.058,6.258 L 0,0 z m 1.513,-1.791 c -0.84,0 -1.739,0.202 -2.669,0.598 l -0.554,0.236 1.44,8.524 0.501,0.112 C 0.256,7.684 0.837,7.812 1.616,7.812 3.68,7.812 5.214,6.953 5.938,5.394 6.624,3.915 6.437,1.902 5.47,0.387 4.573,-1.018 3.168,-1.791 1.513,-1.791"
             id="path105909"
             style="fill:#000000;fill-opacity:1;fill-rule:nonzero;stroke:none" /></g><g
           transform="translate(78.6621,184.7905)"
           id="g105911"><path
             d="m 0,0 c 0,0 -2.843,1.755 -5.372,0.284 -2.528,-1.469 -2.44,-8.767 4.95,-7.522 L 0,0 z"
             id="path105913"
             style="fill:#ffffff;fill-opacity:1;fill-rule:nonzero;stroke:none" /></g><g
           transform="translate(75.5313,184.8989)"
           id="g105915"><path
             d="m 0,0 c -0.68,0 -1.305,-0.163 -1.856,-0.484 -0.801,-0.465 -1.399,-2.075 -0.977,-3.64 0.262,-0.971 1.121,-2.6 3.943,-2.601 0.28,0 0.571,0.017 0.872,0.049 l 0.357,6.118 C 1.856,-0.332 0.976,0 0,0 m 1.11,-8.252 0,0 c -2.762,0 -4.789,1.395 -5.418,3.731 -0.572,2.123 0.167,4.477 1.684,5.358 0.787,0.458 1.671,0.69 2.624,0.69 1.913,0 3.467,-0.945 3.531,-0.985 L 3.92,0.302 3.435,-7.998 2.836,-8.1 C 2.233,-8.201 1.653,-8.252 1.11,-8.252"
             id="path105917"
             style="fill:#000000;fill-opacity:1;fill-rule:nonzero;stroke:none" /></g><g
           transform="translate(129.5625,263.4834)"
           id="g105919"><path
             d="m 0,0 c 0,0 -22.278,-2.366 -35.173,-11.865 -12.894,-9.5 -15.254,-17.743 -16.267,-23.07 -1.012,-5.325 -0.951,-49.339 -0.545,-52.074 0.404,-2.733 9.534,-12.127 22.809,-13.566 13.278,-1.44 21.29,4.625 22.308,8.089 1.015,3.465 10.027,50.336 10.279,53.218 0.251,2.881 -6.508,12.461 -13.149,15.662 0,0 5.788,7.082 11.545,10.299 0,0 -14.332,0.927 -20.966,-2.072 0,0 10.266,12.012 19.159,15.379"
             id="path105921"
             style="fill:#ffffff;fill-opacity:1;fill-rule:nonzero;stroke:none" /></g><g
           transform="translate(124.9893,262.0352)"
           id="g105923"><path
             d="m 0,0 c -7.189,-1.241 -21.104,-4.37 -30.146,-11.032 -11.96,-8.81 -14.785,-16.367 -15.97,-22.597 -0.962,-5.053 -0.952,-49.044 -0.54,-51.82 0.34,-2.289 9.068,-11.501 22.136,-12.919 1.3,-0.141 2.598,-0.212 3.853,-0.212 10.724,0 16.87,5.138 17.639,7.757 0.972,3.315 9.979,49.936 10.253,53.07 0.218,2.51 -6.304,11.815 -12.721,14.907 l -0.873,0.42 0.613,0.751 c 0.21,0.258 4.641,5.645 9.658,9.154 -0.736,0.02 -1.605,0.034 -2.566,0.034 -4.959,0 -11.694,-0.371 -15.607,-2.14 l -3.119,-1.409 2.223,2.601 C -14.809,-13.017 -7.618,-4.662 0,0 m -20.667,-100.107 c -1.31,0 -2.661,0.075 -4.017,0.221 -13.066,1.416 -22.976,10.793 -23.483,14.213 -0.437,2.955 -0.479,46.915 0.551,52.33 1.167,6.139 4.107,14.363 16.564,23.54 C -18.14,-0.289 3.576,2.109 4.494,2.208 L 10.388,2.833 4.844,0.734 c -6.333,-2.398 -13.49,-9.404 -16.875,-12.991 4.066,1.048 9.303,1.297 13.367,1.297 2.943,0 5.071,-0.135 5.093,-0.136 l 2.581,-0.167 -2.258,-1.262 c -4.499,-2.514 -9.095,-7.537 -10.716,-9.4 6.497,-3.64 12.984,-12.808 12.709,-15.962 -0.274,-3.15 -9.329,-50.033 -10.308,-53.364 -1.089,-3.713 -8.333,-8.856 -19.104,-8.856"
             id="path105925"
             style="fill:#000000;fill-opacity:1;fill-rule:nonzero;stroke:none" /></g><g
           transform="translate(81.374,199.1294)"
           id="g105927"><path
             d="m 0,0 c 0,0 1.304,4.199 4.715,4.203 3.41,0.004 4.527,-4.469 4.527,-4.469"
             id="path105929"
             style="fill:#ffffff;fill-opacity:1;fill-rule:nonzero;stroke:none" /></g><g
           transform="translate(89.876,198.6777)"
           id="g105931"><path
             d="m 0,0 c -0.01,0.039 -1.02,3.891 -3.783,3.891 l -0.002,0 C -6.588,3.887 -7.763,0.26 -7.775,0.223 l -1.457,0.455 c 0.06,0.193 1.516,4.735 5.443,4.74 l 0.006,0 C 0.176,5.418 1.43,0.577 1.48,0.371 L 0,0 z"
             id="path105933"
             style="fill:#000000;fill-opacity:1;fill-rule:nonzero;stroke:none" /></g><g
           transform="translate(115.3076,195.875)"
           id="g105935"><path
             d="M 0,0 C 0,0 2.033,3.429 5.258,2.955 8.483,2.481 8.965,-1.917 8.965,-1.917"
             id="path105937"
             style="fill:#ffffff;fill-opacity:1;fill-rule:nonzero;stroke:none" /></g><g
           transform="translate(123.5137,193.874)"
           id="g105939"><path
             d="M 0,0 C -0.005,0.039 -0.462,3.819 -3.06,4.201 -5.722,4.588 -7.531,1.64 -7.55,1.61 l -1.312,0.781 c 0.092,0.157 2.326,3.861 6.024,3.32 C 0.929,5.158 1.495,0.371 1.519,0.167 L 0,0 z"
             id="path105941"
             style="fill:#000000;fill-opacity:1;fill-rule:nonzero;stroke:none" /></g><g
           transform="translate(85.125,187.3384)"
           id="g105943"><path
             d="m 0,0 c -0.097,-1.339 -0.783,-2.382 -1.532,-2.328 -0.748,0.055 -1.277,1.186 -1.179,2.525 0.095,1.341 0.782,2.384 1.53,2.329 C -0.432,2.473 0.098,1.341 0,0"
             id="path105945"
             style="fill:#000000;fill-opacity:1;fill-rule:nonzero;stroke:none" /></g><g
           transform="translate(119.7764,182.6646)"
           id="g105947"><path
             d="m 0,0 c -0.283,-1.314 -1.107,-2.252 -1.843,-2.093 -0.733,0.159 -1.098,1.353 -0.813,2.667 0.282,1.313 1.107,2.25 1.842,2.09 C -0.081,2.506 0.284,1.312 0,0"
             id="path105949"
             style="fill:#000000;fill-opacity:1;fill-rule:nonzero;stroke:none" /></g><g
           transform="translate(89.3486,174.8423)"
           id="g105951"><path
             d="m 0,0 c 0,0 4.025,-5.997 11.348,-6.512 7.32,-0.518 9.778,4.612 9.778,4.612"
             id="path105953"
             style="fill:#ffffff;fill-opacity:1;fill-rule:nonzero;stroke:none" /></g><g
           transform="translate(101.7314,167.5273)"
           id="g105955"><path
             d="M 0,0 C -0.351,0 -0.714,0.014 -1.089,0.041 -8.695,0.575 -12.844,6.632 -13.016,6.89 l 1.268,0.851 C -11.71,7.684 -7.827,2.044 -0.98,1.563 5.752,1.087 8.031,5.698 8.055,5.744 L 9.431,5.085 C 9.326,4.867 6.911,0 0,0"
             id="path105957"
             style="fill:#000000;fill-opacity:1;fill-rule:nonzero;stroke:none" /></g><g
           transform="translate(74.0098,117.4746)"
           id="g105959"><path
             d="m 0,0 -1.493,0.325 c 2.974,13.69 15.357,47.397 15.482,47.737 l 1.433,-0.529 C 15.298,47.196 2.952,13.585 0,0"
             id="path105961"
             style="fill:#000000;fill-opacity:1;fill-rule:nonzero;stroke:none" /></g><g
           transform="translate(75.1113,78)"
           id="g105963"><path
             d="m 0,0 -1.518,0.165 c 2.076,18.821 3.731,35.511 3.747,35.678 l 1.52,-0.15 C 3.732,35.525 2.075,18.827 0,0"
             id="path105965"
             style="fill:#000000;fill-opacity:1;fill-rule:nonzero;stroke:none" /></g><g
           transform="translate(121.4258,76.4814)"
           id="g105967"><path
             d="m 0,0 c -2.077,15.422 -4.328,34.457 -4.352,34.647 l 1.518,0.179 C -2.812,34.636 -0.562,15.612 1.512,0.204 L 0,0 z"
             id="path105969"
             style="fill:#000000;fill-opacity:1;fill-rule:nonzero;stroke:none" /></g><g
           transform="translate(122.0615,77.4795)"
           id="g105971"><path
             d="M 0,0 C 0,0 -0.033,-8.415 0.54,-8.893 1.111,-9.37 13.709,-11.564 15.141,-9.942 16.571,-8.32 0,0 0,0"
             id="path105973"
             style="fill:#ffffff;fill-opacity:1;fill-rule:nonzero;stroke:none" /></g><g
           transform="translate(123.1748,69.1689)"
           id="g105975"><path
             d="m 0,0 c 1.265,-0.398 7.233,-1.457 11.012,-1.457 1.296,0 1.924,0.126 2.215,0.224 C 12.179,0.166 5.771,3.934 -0.348,7.066 -0.33,4.03 -0.206,0.874 0,0 m 11.013,-2.984 -10e-4,0 c -3.882,0 -11.344,1.206 -12.075,1.814 -0.275,0.23 -0.848,0.707 -0.814,9.483 l 0.006,1.232 1.1,-0.553 C 3.778,6.708 14.408,1.146 14.854,-1.16 14.926,-1.524 14.834,-1.871 14.6,-2.137 14.082,-2.725 12.977,-2.984 11.013,-2.984"
             id="path105977"
             style="fill:#000000;fill-opacity:1;fill-rule:nonzero;stroke:none" /></g><g
           transform="translate(74.4434,78.9111)"
           id="g105979"><path
             d="m 0,0 c 0,0 0.919,-9.562 0.347,-10.039 -0.574,-0.476 -13.743,-5.916 -14.984,-4.294 C -15.877,-12.711 0,0 0,0"
             id="path105981"
             style="fill:#ffffff;fill-opacity:1;fill-rule:nonzero;stroke:none" /></g><g
           transform="translate(60.5879,65.0498)"
           id="g105983"><path
             d="m 0,0 c 0.064,-0.006 0.145,-0.01 0.243,-0.01 3.031,0 11.86,3.591 13.338,4.355 0.145,0.933 -0.05,4.496 -0.355,8.027 C 7.115,7.407 0.827,1.711 0,0 m 0.243,-1.537 c -0.788,0 -1.322,0.198 -1.631,0.602 -0.464,0.606 -1.694,2.216 14.766,15.391 l 1.102,0.883 0.135,-1.404 C 15.572,3.973 15.021,3.512 14.691,3.236 14.027,2.684 3.809,-1.537 0.243,-1.537"
             id="path105985"
             style="fill:#000000;fill-opacity:1;fill-rule:nonzero;stroke:none" /></g><g
           transform="translate(73.4346,118.4072)"
           id="g105987"><path
             d="m 0,0 c 0,0 2.118,-7.735 2.022,-9.835 -0.094,-2.1 -1.908,-6.775 -2.766,-6.775 -0.86,0 -2.387,3.435 -2.672,5.438 C -3.703,-9.166 -0.436,-1.802 0,0"
             id="path105989"
             style="fill:#ffffff;fill-opacity:1;fill-rule:nonzero;stroke:none" /></g><g
           transform="translate(73.335,115.7617)"
           id="g105991"><path
             d="m 0,0 c -0.092,-0.246 -0.188,-0.503 -0.289,-0.771 -0.912,-2.426 -2.438,-6.488 -2.273,-7.645 0.24,-1.673 1.291,-3.979 1.879,-4.65 0.681,0.889 1.963,4.17 2.043,5.912 C 1.413,-5.979 0.646,-2.587 0,0 m -0.645,-14.729 c -1.761,0 -3.225,4.675 -3.428,6.095 -0.205,1.431 0.895,4.518 2.353,8.402 0.509,1.349 0.946,2.515 1.077,3.056 l 0.696,2.88 0.783,-2.856 c 0.221,-0.806 2.146,-7.914 2.049,-10.072 -0.069,-1.52 -1.736,-7.505 -3.53,-7.505"
             id="path105993"
             style="fill:#000000;fill-opacity:1;fill-rule:nonzero;stroke:none" /></g><g
           transform="translate(73.0996,104.3135)"
           id="g105995"><path
             d="m 0,0 c -0.12,0 -0.244,0.021 -0.362,0.067 -0.704,0.268 -1.294,1.53 -1.75,3.752 l 1.496,0.307 C -0.5,3.56 -0.345,2.979 -0.188,2.504 -0.089,3.821 -0.107,5.964 -0.217,7.84 L 1.306,7.929 C 1.714,1.032 0.892,0.414 0.621,0.214 0.435,0.073 0.219,0 0,0"
             id="path105997"
             style="fill:#000000;fill-opacity:1;fill-rule:nonzero;stroke:none" /></g><g
           transform="translate(110.7676,121.9326)"
           id="g105999"><path
             d="m 0,0 c -7.053,6.288 -15.27,15.46 -15.27,16.128 0,0.669 19.086,16.606 20.709,16.129 C 7.062,31.778 31.492,7.73 31.683,6.584 31.874,5.44 14.601,-11.121 13.646,-10.715 12.692,-10.307 7.921,-7.063 0,0"
             id="path106001"
             style="fill:#ffffff;fill-opacity:1;fill-rule:nonzero;stroke:none" /></g><g
           transform="translate(96.4014,137.9873)"
           id="g106003"><path
             d="m 0,0 c 1.25,-1.776 8.219,-9.551 14.873,-15.484 7.391,-6.589 11.954,-9.772 13.209,-10.467 2.292,1.281 15.619,14.073 17.119,16.419 C 43.029,-6.582 21.992,13.982 19.642,15.431 17.356,14.826 2.244,2.376 0,0 m 28.055,-27.54 -0.157,0 -0.185,0.069 c -1.059,0.452 -5.838,3.699 -13.856,10.848 -5.396,4.81 -15.524,15.352 -15.524,16.696 0,0.27 0,0.989 9.81,8.91 9.897,7.994 11.163,7.994 11.58,7.994 0.104,0 0.204,-0.016 0.297,-0.043 1.761,-0.518 26.542,-24.83 26.783,-26.279 0.068,-0.409 -0.077,-0.8 -1.118,-2.027 C 43.011,-14.529 29.84,-27.54 28.055,-27.54"
             id="path106005"
             style="fill:#000000;fill-opacity:1;fill-rule:nonzero;stroke:none" /></g><g
           transform="translate(118.8828,128.9385)"
           id="g106007"><path
             d="m 0,0 -0.869,1.257 c 4.525,3.139 10.962,10.057 11.722,11.348 -0.258,0.852 -2.456,5.059 -5.677,10.036 -3.092,4.777 -9.242,12.357 -9.304,12.434 l 1.186,0.964 c 0.062,-0.077 6.265,-7.724 9.4,-12.568 2.492,-3.852 5.944,-9.8 5.944,-10.954 C 12.402,11.162 4.289,2.975 0,0"
             id="path106009"
             style="fill:#000000;fill-opacity:1;fill-rule:nonzero;stroke:none" /></g><g
           transform="translate(118.9766,129.9443)"
           id="g106011"><path
             d="m 0,0 c 0,0 -10.022,0.291 -10.786,-0.377 -0.763,-0.669 0.382,-3.148 0.382,-3.148 0,0 -2.672,-2.005 -2.576,-2.387 0.094,-0.382 3.626,-5.057 7.157,-6.394 3.53,-1.337 4.294,-0.562 5.057,0.769 C -0.001,-10.206 0.672,-1.244 0,0"
             id="path106013"
             style="fill:#ffffff;fill-opacity:1;fill-rule:nonzero;stroke:none" /></g><g
           transform="translate(106.8906,124.0225)"
           id="g106015"><path
             d="m 0,0 c 0.781,-1.109 3.688,-4.595 6.532,-5.669 1.151,-0.435 2.01,-0.647 2.632,-0.647 0.742,0 1.037,0.283 1.493,1.078 0.611,1.065 1.167,8.417 0.856,10.411 C 10.722,5.192 9.172,5.221 7.528,5.221 3.223,5.221 2.078,5.021 1.791,4.936 1.716,4.643 1.976,3.585 2.375,2.715 L 2.632,2.156 2.139,1.784 C 1.337,1.183 0.41,0.418 0,0 m 9.164,-7.843 0,0 c -0.821,0 -1.829,0.238 -3.172,0.744 -3.734,1.414 -7.449,6.207 -7.628,6.924 -0.102,0.406 -0.206,0.824 2.382,2.819 -0.41,1.055 -0.84,2.695 0.052,3.476 0.285,0.249 0.719,0.629 6.73,0.629 2.377,0 4.558,-0.062 4.581,-0.062 L 12.55,6.674 12.76,6.284 C 13.604,4.716 12.84,-4.502 11.982,-5.995 11.47,-6.889 10.787,-7.843 9.164,-7.843"
             id="path106017"
             style="fill:#000000;fill-opacity:1;fill-rule:nonzero;stroke:none" /></g></g></g></g><image
     xlink:href="imagem-28.png"
     x="-96.716019"
     y="-96.112076"
     width="407.92758"
     height="607.04358"
     id="image9559" /></svg>